<svg width="283" height="438" viewBox="0 0 283 438" fill="none" xmlns="http://www.w3.org/2000/svg">
<path d="M-40.08 44.616H-61.52V57.352C-60.624 56.1573 -59.3013 55.1547 -57.552 54.344C-55.76 53.5333 -53.8613 53.128 -51.856 53.128C-48.272 53.128 -45.3707 53.896 -43.152 55.432C-40.8907 56.968 -39.2907 58.9093 -38.352 61.256C-37.3707 63.6027 -36.88 66.0773 -36.88 68.68C-36.88 71.8373 -37.4987 74.6533 -38.736 77.128C-39.9307 79.56 -41.744 81.48 -44.176 82.888C-46.5653 84.296 -49.5093 85 -53.008 85C-57.6587 85 -61.392 83.848 -64.208 81.544C-67.024 79.24 -68.7093 76.1893 -69.264 72.392H-62.16C-61.6907 74.3973 -60.6453 75.9973 -59.024 77.192C-57.4027 78.344 -55.376 78.92 -52.944 78.92C-49.9147 78.92 -47.6533 78.0027 -46.16 76.168C-44.624 74.3333 -43.856 71.9013 -43.856 68.872C-43.856 65.8 -44.624 63.4533 -46.16 61.832C-47.696 60.168 -49.9573 59.336 -52.944 59.336C-55.0347 59.336 -56.8053 59.8693 -58.256 60.936C-59.664 61.96 -60.688 63.368 -61.328 65.16H-68.24V38.216H-40.08V44.616ZM-25.381 85.448C-26.7037 85.448 -27.813 85 -28.709 84.104C-29.605 83.208 -30.053 82.0987 -30.053 80.776C-30.053 79.4533 -29.605 78.344 -28.709 77.448C-27.813 76.552 -26.7037 76.104 -25.381 76.104C-24.101 76.104 -23.013 76.552 -22.117 77.448C-21.221 78.344 -20.773 79.4533 -20.773 80.776C-20.773 82.0987 -21.221 83.208 -22.117 84.104C-23.013 85 -24.101 85.448 -25.381 85.448ZM-13.8475 61.064C-13.8475 53.6827 -12.6102 47.9227 -10.1355 43.784C-7.61817 39.6027 -3.30883 37.512 2.7925 37.512C8.89384 37.512 13.1818 39.6027 15.6565 43.784C18.1738 47.9227 19.4325 53.6827 19.4325 61.064C19.4325 68.5307 18.1738 74.376 15.6565 78.6C13.1818 82.7813 8.89384 84.872 2.7925 84.872C-3.30883 84.872 -7.61817 82.7813 -10.1355 78.6C-12.6102 74.376 -13.8475 68.5307 -13.8475 61.064ZM12.2645 61.064C12.2645 57.608 12.0298 54.6853 11.5605 52.296C11.1338 49.9067 10.2378 47.9653 8.8725 46.472C7.50717 44.936 5.4805 44.168 2.7925 44.168C0.1045 44.168 -1.92217 44.936 -3.2875 46.472C-4.65283 47.9653 -5.57017 49.9067 -6.0395 52.296C-6.46617 54.6853 -6.6795 57.608 -6.6795 61.064C-6.6795 64.648 -6.46617 67.656 -6.0395 70.088C-5.61283 72.52 -4.71683 74.4827 -3.3515 75.976C-1.9435 77.4693 0.1045 78.216 2.7925 78.216C5.4805 78.216 7.50717 77.4693 8.8725 75.976C10.2805 74.4827 11.1978 72.52 11.6245 70.088C12.0512 67.656 12.2645 64.648 12.2645 61.064ZM36.1469 85.216C35.1069 85.216 34.1709 85.032 33.3389 84.664C32.5229 84.28 31.8749 83.768 31.3949 83.128C30.9149 82.472 30.6589 81.744 30.6269 80.944H33.4589C33.5069 81.504 33.7709 81.976 34.2509 82.36C34.7469 82.728 35.3629 82.912 36.0989 82.912C36.8669 82.912 37.4589 82.768 37.8749 82.48C38.3069 82.176 38.5229 81.792 38.5229 81.328C38.5229 80.832 38.2829 80.464 37.8029 80.224C37.3389 79.984 36.5949 79.72 35.5709 79.432C34.5789 79.16 33.7709 78.896 33.1469 78.64C32.5229 78.384 31.9789 77.992 31.5149 77.464C31.0669 76.936 30.8429 76.24 30.8429 75.376C30.8429 74.672 31.0509 74.032 31.4669 73.456C31.8829 72.864 32.4749 72.4 33.2429 72.064C34.0269 71.728 34.9229 71.56 35.9309 71.56C37.4349 71.56 38.6429 71.944 39.5549 72.712C40.4829 73.464 40.9789 74.496 41.0429 75.808H38.3069C38.2589 75.216 38.0189 74.744 37.5869 74.392C37.1549 74.04 36.5709 73.864 35.8349 73.864C35.1149 73.864 34.5629 74 34.1789 74.272C33.7949 74.544 33.6029 74.904 33.6029 75.352C33.6029 75.704 33.7309 76 33.9869 76.24C34.2429 76.48 34.5549 76.672 34.9229 76.816C35.2909 76.944 35.8349 77.112 36.5549 77.32C37.5149 77.576 38.2989 77.84 38.9069 78.112C39.5309 78.368 40.0669 78.752 40.5149 79.264C40.9629 79.776 41.1949 80.456 41.2109 81.304C41.2109 82.056 41.0029 82.728 40.5869 83.32C40.1709 83.912 39.5789 84.376 38.8109 84.712C38.0589 85.048 37.1709 85.216 36.1469 85.216ZM47.3592 74.008V81.328C47.3592 81.824 47.4712 82.184 47.6952 82.408C47.9352 82.616 48.3352 82.72 48.8952 82.72H50.5752V85H48.4152C47.1832 85 46.2392 84.712 45.5832 84.136C44.9272 83.56 44.5992 82.624 44.5992 81.328V74.008H43.0392V71.776H44.5992V68.488H47.3592V71.776H50.5752V74.008H47.3592ZM52.1849 78.328C52.1849 77 52.4569 75.824 53.0009 74.8C53.5609 73.776 54.3129 72.984 55.2569 72.424C56.2169 71.848 57.2729 71.56 58.4249 71.56C59.4649 71.56 60.3689 71.768 61.1369 72.184C61.9209 72.584 62.5449 73.088 63.0089 73.696V71.776H65.7689V85H63.0089V83.032C62.5449 83.656 61.9129 84.176 61.1129 84.592C60.3129 85.008 59.4009 85.216 58.3769 85.216C57.2409 85.216 56.2009 84.928 55.2569 84.352C54.3129 83.76 53.5609 82.944 53.0009 81.904C52.4569 80.848 52.1849 79.656 52.1849 78.328ZM63.0089 78.376C63.0089 77.464 62.8169 76.672 62.4329 76C62.0649 75.328 61.5769 74.816 60.9689 74.464C60.3609 74.112 59.7049 73.936 59.0009 73.936C58.2969 73.936 57.6409 74.112 57.0329 74.464C56.4249 74.8 55.9289 75.304 55.5449 75.976C55.1769 76.632 54.9929 77.416 54.9929 78.328C54.9929 79.24 55.1769 80.04 55.5449 80.728C55.9289 81.416 56.4249 81.944 57.0329 82.312C57.6569 82.664 58.3129 82.84 59.0009 82.84C59.7049 82.84 60.3609 82.664 60.9689 82.312C61.5769 81.96 62.0649 81.448 62.4329 80.776C62.8169 80.088 63.0089 79.288 63.0089 78.376ZM72.0985 73.696C72.4985 73.024 73.0265 72.504 73.6825 72.136C74.3545 71.752 75.1465 71.56 76.0585 71.56V74.392H75.3625C74.2905 74.392 73.4745 74.664 72.9145 75.208C72.3705 75.752 72.0985 76.696 72.0985 78.04V85H69.3625V71.776H72.0985V73.696ZM83.3734 85.216C82.3334 85.216 81.3974 85.032 80.5654 84.664C79.7494 84.28 79.1014 83.768 78.6214 83.128C78.1414 82.472 77.8854 81.744 77.8534 80.944H80.6854C80.7334 81.504 80.9974 81.976 81.4774 82.36C81.9734 82.728 82.5894 82.912 83.3254 82.912C84.0934 82.912 84.6854 82.768 85.1014 82.48C85.5334 82.176 85.7494 81.792 85.7494 81.328C85.7494 80.832 85.5094 80.464 85.0294 80.224C84.5654 79.984 83.8214 79.72 82.7974 79.432C81.8054 79.16 80.9974 78.896 80.3734 78.64C79.7494 78.384 79.2054 77.992 78.7414 77.464C78.2934 76.936 78.0694 76.24 78.0694 75.376C78.0694 74.672 78.2774 74.032 78.6934 73.456C79.1094 72.864 79.7014 72.4 80.4694 72.064C81.2534 71.728 82.1494 71.56 83.1574 71.56C84.6614 71.56 85.8694 71.944 86.7814 72.712C87.7094 73.464 88.2054 74.496 88.2694 75.808H85.5334C85.4854 75.216 85.2454 74.744 84.8134 74.392C84.3814 74.04 83.7974 73.864 83.0614 73.864C82.3414 73.864 81.7894 74 81.4054 74.272C81.0214 74.544 80.8294 74.904 80.8294 75.352C80.8294 75.704 80.9574 76 81.2134 76.24C81.4694 76.48 81.7814 76.672 82.1494 76.816C82.5174 76.944 83.0614 77.112 83.7814 77.32C84.7414 77.576 85.5254 77.84 86.1334 78.112C86.7574 78.368 87.2934 78.752 87.7414 79.264C88.1894 79.776 88.4214 80.456 88.4374 81.304C88.4374 82.056 88.2294 82.728 87.8134 83.32C87.3974 83.912 86.8054 84.376 86.0374 84.712C85.2854 85.048 84.3974 85.216 83.3734 85.216Z" fill="#383838"/>
<path d="M-6.67255 110.363C-6.39744 109.805 -5.60256 109.805 -5.32745 110.363L-2.64779 115.792C-2.53855 116.014 -2.32737 116.167 -2.08309 116.203L3.9088 117.073C4.52397 117.163 4.7696 117.919 4.32447 118.353L-0.0113087 122.579C-0.188074 122.751 -0.268736 122.999 -0.227007 123.243L0.79653 129.21C0.901613 129.823 0.258539 130.29 -0.291681 130.001L-5.65099 127.183C-5.86949 127.069 -6.13051 127.069 -6.34901 127.183L-11.7083 130.001C-12.2585 130.29 -12.9016 129.823 -12.7965 129.21L-11.773 123.243C-11.7313 122.999 -11.8119 122.751 -11.9887 122.579L-16.3245 118.353C-16.7696 117.919 -16.524 117.163 -15.9088 117.073L-9.91691 116.203C-9.67263 116.167 -9.46146 116.014 -9.35221 115.792L-6.67255 110.363Z" fill="#EFBF14"/>
<path d="M21.3274 110.363C21.6026 109.805 22.3974 109.805 22.6726 110.363L25.3522 115.792C25.4615 116.014 25.6726 116.167 25.9169 116.203L31.9088 117.073C32.524 117.163 32.7696 117.919 32.3245 118.353L27.9887 122.579C27.8119 122.751 27.7313 122.999 27.773 123.243L28.7965 129.21C28.9016 129.823 28.2585 130.29 27.7083 130.001L22.349 127.183C22.1305 127.069 21.8695 127.069 21.651 127.183L16.2917 130.001C15.7415 130.29 15.0984 129.823 15.2035 129.21L16.227 123.243C16.2687 122.999 16.1881 122.751 16.0113 122.579L11.6755 118.353C11.2304 117.919 11.476 117.163 12.0912 117.073L18.0831 116.203C18.3274 116.167 18.5385 116.014 18.6478 115.792L21.3274 110.363Z" fill="#EFBF14"/>
<path d="M49.3274 110.363C49.6026 109.805 50.3974 109.805 50.6726 110.363L53.3522 115.792C53.4615 116.014 53.6726 116.167 53.9169 116.203L59.9088 117.073C60.524 117.163 60.7696 117.919 60.3245 118.353L55.9887 122.579C55.8119 122.751 55.7313 122.999 55.773 123.243L56.7965 129.21C56.9016 129.823 56.2585 130.29 55.7083 130.001L50.349 127.183C50.1305 127.069 49.8695 127.069 49.651 127.183L44.2917 130.001C43.7415 130.29 43.0984 129.823 43.2035 129.21L44.227 123.243C44.2687 122.999 44.1881 122.751 44.0113 122.579L39.6755 118.353C39.2304 117.919 39.476 117.163 40.0912 117.073L46.0831 116.203C46.3274 116.167 46.5385 116.014 46.6478 115.792L49.3274 110.363Z" fill="#EFBF14"/>
<path d="M-78.5699 185.54H-80.4059L-78.6779 181.454H-77.5079L-78.5699 185.54ZM-75.6539 185.54H-77.4899L-75.7619 181.454H-74.5919L-75.6539 185.54ZM-70.976 181.454V194H-72.614V181.454H-70.976ZM-58.4895 183.956C-57.7455 183.956 -57.0735 184.118 -56.4735 184.442C-55.8735 184.754 -55.4055 185.228 -55.0695 185.864C-54.7215 186.5 -54.5475 187.274 -54.5475 188.186V194H-56.1675V188.42C-56.1675 187.436 -56.4135 186.686 -56.9055 186.17C-57.3975 185.642 -58.0695 185.378 -58.9215 185.378C-59.7855 185.378 -60.4755 185.648 -60.9915 186.188C-61.4955 186.728 -61.7475 187.514 -61.7475 188.546V194H-63.3855V180.68H-61.7475V185.54C-61.4235 185.036 -60.9795 184.646 -60.4155 184.37C-59.8395 184.094 -59.1975 183.956 -58.4895 183.956ZM-52.4838 189.032C-52.4838 188.024 -52.2798 187.142 -51.8718 186.386C-51.4638 185.618 -50.9058 185.024 -50.1978 184.604C-49.4778 184.184 -48.6798 183.974 -47.8038 183.974C-46.9398 183.974 -46.1898 184.16 -45.5538 184.532C-44.9178 184.904 -44.4438 185.372 -44.1318 185.936V184.136H-42.4758V194H-44.1318V192.164C-44.4558 192.74 -44.9418 193.22 -45.5898 193.604C-46.2258 193.976 -46.9698 194.162 -47.8218 194.162C-48.6978 194.162 -49.4898 193.946 -50.1978 193.514C-50.9058 193.082 -51.4638 192.476 -51.8718 191.696C-52.2798 190.916 -52.4838 190.028 -52.4838 189.032ZM-44.1318 189.05C-44.1318 188.306 -44.2818 187.658 -44.5818 187.106C-44.8818 186.554 -45.2898 186.134 -45.8058 185.846C-46.3098 185.546 -46.8678 185.396 -47.4798 185.396C-48.0918 185.396 -48.6498 185.54 -49.1538 185.828C-49.6578 186.116 -50.0598 186.536 -50.3598 187.088C-50.6598 187.64 -50.8098 188.288 -50.8098 189.032C-50.8098 189.788 -50.6598 190.448 -50.3598 191.012C-50.0598 191.564 -49.6578 191.99 -49.1538 192.29C-48.6498 192.578 -48.0918 192.722 -47.4798 192.722C-46.8678 192.722 -46.3098 192.578 -45.8058 192.29C-45.2898 191.99 -44.8818 191.564 -44.5818 191.012C-44.2818 190.448 -44.1318 189.794 -44.1318 189.05ZM-36.0357 192.488L-32.9757 184.136H-31.2297L-35.0997 194H-37.0077L-40.8777 184.136H-39.1137L-36.0357 192.488ZM-20.6179 188.69C-20.6179 189.002 -20.6359 189.332 -20.6719 189.68H-28.5559C-28.4959 190.652 -28.1659 191.414 -27.5659 191.966C-26.9539 192.506 -26.2159 192.776 -25.3519 192.776C-24.6439 192.776 -24.0559 192.614 -23.5879 192.29C-23.1079 191.954 -22.7719 191.51 -22.5799 190.958H-20.8159C-21.0799 191.906 -21.6079 192.68 -22.3999 193.28C-23.1919 193.868 -24.1759 194.162 -25.3519 194.162C-26.2879 194.162 -27.1279 193.952 -27.8719 193.532C-28.6039 193.112 -29.1799 192.518 -29.5999 191.75C-30.0199 190.97 -30.2299 190.07 -30.2299 189.05C-30.2299 188.03 -30.0259 187.136 -29.6179 186.368C-29.2099 185.6 -28.6399 185.012 -27.9079 184.604C-27.1639 184.184 -26.3119 183.974 -25.3519 183.974C-24.4159 183.974 -23.5879 184.178 -22.8679 184.586C-22.1479 184.994 -21.5959 185.558 -21.2119 186.278C-20.8159 186.986 -20.6179 187.79 -20.6179 188.69ZM-22.3099 188.348C-22.3099 187.724 -22.4479 187.19 -22.7239 186.746C-22.9999 186.29 -23.3779 185.948 -23.8579 185.72C-24.3259 185.48 -24.8479 185.36 -25.4239 185.36C-26.2519 185.36 -26.9599 185.624 -27.5479 186.152C-28.1239 186.68 -28.4539 187.412 -28.5379 188.348H-22.3099ZM-12.019 185.972C-11.683 185.384 -11.191 184.904 -10.543 184.532C-9.89497 184.16 -9.15697 183.974 -8.32897 183.974C-7.44097 183.974 -6.64297 184.184 -5.93497 184.604C-5.22697 185.024 -4.66897 185.618 -4.26097 186.386C-3.85297 187.142 -3.64897 188.024 -3.64897 189.032C-3.64897 190.028 -3.85297 190.916 -4.26097 191.696C-4.66897 192.476 -5.23297 193.082 -5.95297 193.514C-6.66097 193.946 -7.45297 194.162 -8.32897 194.162C-9.18097 194.162 -9.93097 193.976 -10.579 193.604C-11.215 193.232 -11.695 192.758 -12.019 192.182V194H-13.657V180.68H-12.019V185.972ZM-5.32297 189.032C-5.32297 188.288 -5.47297 187.64 -5.77297 187.088C-6.07297 186.536 -6.48097 186.116 -6.99697 185.828C-7.50097 185.54 -8.05897 185.396 -8.67097 185.396C-9.27097 185.396 -9.82897 185.546 -10.345 185.846C-10.849 186.134 -11.257 186.56 -11.569 187.124C-11.869 187.676 -12.019 188.318 -12.019 189.05C-12.019 189.794 -11.869 190.448 -11.569 191.012C-11.257 191.564 -10.849 191.99 -10.345 192.29C-9.82897 192.578 -9.27097 192.722 -8.67097 192.722C-8.05897 192.722 -7.50097 192.578 -6.99697 192.29C-6.48097 191.99 -6.07297 191.564 -5.77297 191.012C-5.47297 190.448 -5.32297 189.788 -5.32297 189.032ZM7.50709 188.69C7.50709 189.002 7.48909 189.332 7.45309 189.68H-0.430906C-0.370906 190.652 -0.0409061 191.414 0.559094 191.966C1.17109 192.506 1.90909 192.776 2.77309 192.776C3.48109 192.776 4.06909 192.614 4.53709 192.29C5.01709 191.954 5.35309 191.51 5.54509 190.958H7.30909C7.04509 191.906 6.51709 192.68 5.72509 193.28C4.93309 193.868 3.94909 194.162 2.77309 194.162C1.83709 194.162 0.997094 193.952 0.253094 193.532C-0.478906 193.112 -1.05491 192.518 -1.47491 191.75C-1.89491 190.97 -2.10491 190.07 -2.10491 189.05C-2.10491 188.03 -1.90091 187.136 -1.49291 186.368C-1.08491 185.6 -0.514906 185.012 0.217094 184.604C0.961094 184.184 1.81309 183.974 2.77309 183.974C3.70909 183.974 4.53709 184.178 5.25709 184.586C5.97709 184.994 6.52909 185.558 6.91309 186.278C7.30909 186.986 7.50709 187.79 7.50709 188.69ZM5.81509 188.348C5.81509 187.724 5.67709 187.19 5.40109 186.746C5.12509 186.29 4.74709 185.948 4.26709 185.72C3.79909 185.48 3.27709 185.36 2.70109 185.36C1.87309 185.36 1.16509 185.624 0.577094 186.152C0.00109386 186.68 -0.328906 187.412 -0.412906 188.348H5.81509ZM18.6692 188.69C18.6692 189.002 18.6512 189.332 18.6152 189.68H10.7312C10.7912 190.652 11.1212 191.414 11.7212 191.966C12.3332 192.506 13.0712 192.776 13.9352 192.776C14.6432 192.776 15.2312 192.614 15.6992 192.29C16.1792 191.954 16.5152 191.51 16.7072 190.958H18.4712C18.2072 191.906 17.6792 192.68 16.8872 193.28C16.0952 193.868 15.1112 194.162 13.9352 194.162C12.9992 194.162 12.1592 193.952 11.4152 193.532C10.6832 193.112 10.1072 192.518 9.6872 191.75C9.2672 190.97 9.0572 190.07 9.0572 189.05C9.0572 188.03 9.2612 187.136 9.6692 186.368C10.0772 185.6 10.6472 185.012 11.3792 184.604C12.1232 184.184 12.9752 183.974 13.9352 183.974C14.8712 183.974 15.6992 184.178 16.4192 184.586C17.1392 184.994 17.6912 185.558 18.0752 186.278C18.4712 186.986 18.6692 187.79 18.6692 188.69ZM16.9772 188.348C16.9772 187.724 16.8392 187.19 16.5632 186.746C16.2872 186.29 15.9092 185.948 15.4292 185.72C14.9612 185.48 14.4392 185.36 13.8632 185.36C13.0352 185.36 12.3272 185.624 11.7392 186.152C11.1632 186.68 10.8332 187.412 10.7492 188.348H16.9772ZM25.6373 183.956C26.8373 183.956 27.8093 184.322 28.5533 185.054C29.2973 185.774 29.6693 186.818 29.6693 188.186V194H28.0493V188.42C28.0493 187.436 27.8033 186.686 27.3113 186.17C26.8193 185.642 26.1473 185.378 25.2953 185.378C24.4313 185.378 23.7413 185.648 23.2253 186.188C22.7213 186.728 22.4693 187.514 22.4693 188.546V194H20.8313V184.136H22.4693V185.54C22.7933 185.036 23.2313 184.646 23.7833 184.37C24.3473 184.094 24.9653 183.956 25.6373 183.956ZM45.8918 184.136V194H44.2538V192.542C43.9418 193.046 43.5038 193.442 42.9398 193.73C42.3878 194.006 41.7758 194.144 41.1038 194.144C40.3358 194.144 39.6458 193.988 39.0338 193.676C38.4218 193.352 37.9358 192.872 37.5758 192.236C37.2278 191.6 37.0538 190.826 37.0538 189.914V184.136H38.6738V189.698C38.6738 190.67 38.9198 191.42 39.4118 191.948C39.9038 192.464 40.5758 192.722 41.4278 192.722C42.3038 192.722 42.9938 192.452 43.4978 191.912C44.0018 191.372 44.2538 190.586 44.2538 189.554V184.136H45.8918ZM52.1495 194.162C51.3935 194.162 50.7155 194.036 50.1155 193.784C49.5155 193.52 49.0415 193.16 48.6935 192.704C48.3455 192.236 48.1535 191.702 48.1175 191.102H49.8095C49.8575 191.594 50.0855 191.996 50.4935 192.308C50.9135 192.62 51.4595 192.776 52.1315 192.776C52.7555 192.776 53.2475 192.638 53.6075 192.362C53.9675 192.086 54.1475 191.738 54.1475 191.318C54.1475 190.886 53.9555 190.568 53.5715 190.364C53.1875 190.148 52.5935 189.938 51.7895 189.734C51.0575 189.542 50.4575 189.35 49.9895 189.158C49.5335 188.954 49.1375 188.66 48.8015 188.276C48.4775 187.88 48.3155 187.364 48.3155 186.728C48.3155 186.224 48.4655 185.762 48.7655 185.342C49.0655 184.922 49.4915 184.592 50.0435 184.352C50.5955 184.1 51.2255 183.974 51.9335 183.974C53.0255 183.974 53.9075 184.25 54.5795 184.802C55.2515 185.354 55.6115 186.11 55.6595 187.07H54.0215C53.9855 186.554 53.7755 186.14 53.3915 185.828C53.0195 185.516 52.5155 185.36 51.8795 185.36C51.2915 185.36 50.8235 185.486 50.4755 185.738C50.1275 185.99 49.9535 186.32 49.9535 186.728C49.9535 187.052 50.0555 187.322 50.2595 187.538C50.4755 187.742 50.7395 187.91 51.0515 188.042C51.3755 188.162 51.8195 188.3 52.3835 188.456C53.0915 188.648 53.6675 188.84 54.1115 189.032C54.5555 189.212 54.9335 189.488 55.2455 189.86C55.5695 190.232 55.7375 190.718 55.7495 191.318C55.7495 191.858 55.5995 192.344 55.2995 192.776C54.9995 193.208 54.5735 193.55 54.0215 193.802C53.4815 194.042 52.8575 194.162 52.1495 194.162ZM58.9078 182.534C58.5958 182.534 58.3318 182.426 58.1158 182.21C57.8998 181.994 57.7918 181.73 57.7918 181.418C57.7918 181.106 57.8998 180.842 58.1158 180.626C58.3318 180.41 58.5958 180.302 58.9078 180.302C59.2078 180.302 59.4598 180.41 59.6638 180.626C59.8798 180.842 59.9878 181.106 59.9878 181.418C59.9878 181.73 59.8798 181.994 59.6638 182.21C59.4598 182.426 59.2078 182.534 58.9078 182.534ZM59.6998 184.136V194H58.0618V184.136H59.6998ZM67.2975 183.956C68.4975 183.956 69.4695 184.322 70.2135 185.054C70.9575 185.774 71.3295 186.818 71.3295 188.186V194H69.7095V188.42C69.7095 187.436 69.4635 186.686 68.9715 186.17C68.4795 185.642 67.8075 185.378 66.9555 185.378C66.0915 185.378 65.4015 185.648 64.8855 186.188C64.3815 186.728 64.1295 187.514 64.1295 188.546V194H62.4915V184.136H64.1295V185.54C64.4535 185.036 64.8915 184.646 65.4435 184.37C66.0075 184.094 66.6255 183.956 67.2975 183.956ZM78.0731 183.974C78.9251 183.974 79.6691 184.16 80.3051 184.532C80.9531 184.904 81.4331 185.372 81.7451 185.936V184.136H83.4011V194.216C83.4011 195.116 83.2091 195.914 82.8251 196.61C82.4411 197.318 81.8891 197.87 81.1691 198.266C80.4611 198.662 79.6331 198.86 78.6851 198.86C77.3891 198.86 76.3091 198.554 75.4451 197.942C74.5811 197.33 74.0711 196.496 73.9151 195.44H75.5351C75.7151 196.04 76.0871 196.52 76.6511 196.88C77.2151 197.252 77.8931 197.438 78.6851 197.438C79.5851 197.438 80.3171 197.156 80.8811 196.592C81.4571 196.028 81.7451 195.236 81.7451 194.216V192.146C81.4211 192.722 80.9411 193.202 80.3051 193.586C79.6691 193.97 78.9251 194.162 78.0731 194.162C77.1971 194.162 76.3991 193.946 75.6791 193.514C74.9711 193.082 74.4131 192.476 74.0051 191.696C73.5971 190.916 73.3931 190.028 73.3931 189.032C73.3931 188.024 73.5971 187.142 74.0051 186.386C74.4131 185.618 74.9711 185.024 75.6791 184.604C76.3991 184.184 77.1971 183.974 78.0731 183.974ZM81.7451 189.05C81.7451 188.306 81.5951 187.658 81.2951 187.106C80.9951 186.554 80.5871 186.134 80.0711 185.846C79.5671 185.546 79.0091 185.396 78.3971 185.396C77.7851 185.396 77.2271 185.54 76.7231 185.828C76.2191 186.116 75.8171 186.536 75.5171 187.088C75.2171 187.64 75.0671 188.288 75.0671 189.032C75.0671 189.788 75.2171 190.448 75.5171 191.012C75.8171 191.564 76.2191 191.99 76.7231 192.29C77.2271 192.578 77.7851 192.722 78.3971 192.722C79.0091 192.722 79.5671 192.578 80.0711 192.29C80.5871 191.99 80.9951 191.564 81.2951 191.012C81.5951 190.448 81.7451 189.794 81.7451 189.05ZM99.464 184.136L93.524 198.644H91.832L93.776 193.892L89.798 184.136H91.616L94.712 192.128L97.772 184.136H99.464ZM105.413 194.162C104.489 194.162 103.649 193.952 102.893 193.532C102.149 193.112 101.561 192.518 101.129 191.75C100.709 190.97 100.499 190.07 100.499 189.05C100.499 188.042 100.715 187.154 101.147 186.386C101.591 185.606 102.191 185.012 102.947 184.604C103.703 184.184 104.549 183.974 105.485 183.974C106.421 183.974 107.267 184.184 108.023 184.604C108.779 185.012 109.373 185.6 109.805 186.368C110.249 187.136 110.471 188.03 110.471 189.05C110.471 190.07 110.243 190.97 109.787 191.75C109.343 192.518 108.737 193.112 107.969 193.532C107.201 193.952 106.349 194.162 105.413 194.162ZM105.413 192.722C106.001 192.722 106.553 192.584 107.069 192.308C107.585 192.032 107.999 191.618 108.311 191.066C108.635 190.514 108.797 189.842 108.797 189.05C108.797 188.258 108.641 187.586 108.329 187.034C108.017 186.482 107.609 186.074 107.105 185.81C106.601 185.534 106.055 185.396 105.467 185.396C104.867 185.396 104.315 185.534 103.811 185.81C103.319 186.074 102.923 186.482 102.623 187.034C102.323 187.586 102.173 188.258 102.173 189.05C102.173 189.854 102.317 190.532 102.605 191.084C102.905 191.636 103.301 192.05 103.793 192.326C104.285 192.59 104.825 192.722 105.413 192.722ZM121.372 184.136V194H119.734V192.542C119.422 193.046 118.984 193.442 118.42 193.73C117.868 194.006 117.256 194.144 116.584 194.144C115.816 194.144 115.126 193.988 114.514 193.676C113.902 193.352 113.416 192.872 113.056 192.236C112.708 191.6 112.534 190.826 112.534 189.914V184.136H114.154V189.698C114.154 190.67 114.4 191.42 114.892 191.948C115.384 192.464 116.056 192.722 116.908 192.722C117.784 192.722 118.474 192.452 118.978 191.912C119.482 191.372 119.734 190.586 119.734 189.554V184.136H121.372ZM125.776 185.738C126.064 185.174 126.472 184.736 127 184.424C127.54 184.112 128.194 183.956 128.962 183.956V185.648H128.53C126.694 185.648 125.776 186.644 125.776 188.636V194H124.138V184.136H125.776V185.738ZM139.144 194.162C138.388 194.162 137.71 194.036 137.11 193.784C136.51 193.52 136.036 193.16 135.688 192.704C135.34 192.236 135.148 191.702 135.112 191.102H136.804C136.852 191.594 137.08 191.996 137.488 192.308C137.908 192.62 138.454 192.776 139.126 192.776C139.75 192.776 140.242 192.638 140.602 192.362C140.962 192.086 141.142 191.738 141.142 191.318C141.142 190.886 140.95 190.568 140.566 190.364C140.182 190.148 139.588 189.938 138.784 189.734C138.052 189.542 137.452 189.35 136.984 189.158C136.528 188.954 136.132 188.66 135.796 188.276C135.472 187.88 135.31 187.364 135.31 186.728C135.31 186.224 135.46 185.762 135.76 185.342C136.06 184.922 136.486 184.592 137.038 184.352C137.59 184.1 138.22 183.974 138.928 183.974C140.02 183.974 140.902 184.25 141.574 184.802C142.246 185.354 142.606 186.11 142.654 187.07H141.016C140.98 186.554 140.77 186.14 140.386 185.828C140.014 185.516 139.51 185.36 138.874 185.36C138.286 185.36 137.818 185.486 137.47 185.738C137.122 185.99 136.948 186.32 136.948 186.728C136.948 187.052 137.05 187.322 137.254 187.538C137.47 187.742 137.734 187.91 138.046 188.042C138.37 188.162 138.814 188.3 139.378 188.456C140.086 188.648 140.662 188.84 141.106 189.032C141.55 189.212 141.928 189.488 142.24 189.86C142.564 190.232 142.732 190.718 142.744 191.318C142.744 191.858 142.594 192.344 142.294 192.776C141.994 193.208 141.568 193.55 141.016 193.802C140.476 194.042 139.852 194.162 139.144 194.162ZM154.056 188.69C154.056 189.002 154.038 189.332 154.002 189.68H146.118C146.178 190.652 146.508 191.414 147.108 191.966C147.72 192.506 148.458 192.776 149.322 192.776C150.03 192.776 150.618 192.614 151.086 192.29C151.566 191.954 151.902 191.51 152.094 190.958H153.858C153.594 191.906 153.066 192.68 152.274 193.28C151.482 193.868 150.498 194.162 149.322 194.162C148.386 194.162 147.546 193.952 146.802 193.532C146.07 193.112 145.494 192.518 145.074 191.75C144.654 190.97 144.444 190.07 144.444 189.05C144.444 188.03 144.648 187.136 145.056 186.368C145.464 185.6 146.034 185.012 146.766 184.604C147.51 184.184 148.362 183.974 149.322 183.974C150.258 183.974 151.086 184.178 151.806 184.586C152.526 184.994 153.078 185.558 153.462 186.278C153.858 186.986 154.056 187.79 154.056 188.69ZM152.364 188.348C152.364 187.724 152.226 187.19 151.95 186.746C151.674 186.29 151.296 185.948 150.816 185.72C150.348 185.48 149.826 185.36 149.25 185.36C148.422 185.36 147.714 185.624 147.126 186.152C146.55 186.68 146.22 187.412 146.136 188.348H152.364ZM157.856 185.738C158.144 185.174 158.552 184.736 159.08 184.424C159.62 184.112 160.274 183.956 161.042 183.956V185.648H160.61C158.774 185.648 157.856 186.644 157.856 188.636V194H156.218V184.136H157.856V185.738ZM166.605 192.488L169.665 184.136H171.411L167.541 194H165.633L161.763 184.136H163.527L166.605 192.488ZM173.869 182.534C173.557 182.534 173.293 182.426 173.077 182.21C172.861 181.994 172.753 181.73 172.753 181.418C172.753 181.106 172.861 180.842 173.077 180.626C173.293 180.41 173.557 180.302 173.869 180.302C174.169 180.302 174.421 180.41 174.625 180.626C174.841 180.842 174.949 181.106 174.949 181.418C174.949 181.73 174.841 181.994 174.625 182.21C174.421 182.426 174.169 182.534 173.869 182.534ZM174.661 184.136V194H173.023V184.136H174.661ZM176.84 189.05C176.84 188.03 177.044 187.142 177.452 186.386C177.86 185.618 178.424 185.024 179.144 184.604C179.876 184.184 180.71 183.974 181.646 183.974C182.858 183.974 183.854 184.268 184.634 184.856C185.426 185.444 185.948 186.26 186.2 187.304H184.436C184.268 186.704 183.938 186.23 183.446 185.882C182.966 185.534 182.366 185.36 181.646 185.36C180.71 185.36 179.954 185.684 179.378 186.332C178.802 186.968 178.514 187.874 178.514 189.05C178.514 190.238 178.802 191.156 179.378 191.804C179.954 192.452 180.71 192.776 181.646 192.776C182.366 192.776 182.966 192.608 183.446 192.272C183.926 191.936 184.256 191.456 184.436 190.832H186.2C185.936 191.84 185.408 192.65 184.616 193.262C183.824 193.862 182.834 194.162 181.646 194.162C180.71 194.162 179.876 193.952 179.144 193.532C178.424 193.112 177.86 192.518 177.452 191.75C177.044 190.982 176.84 190.082 176.84 189.05ZM197.386 188.69C197.386 189.002 197.368 189.332 197.332 189.68H189.448C189.508 190.652 189.838 191.414 190.438 191.966C191.05 192.506 191.788 192.776 192.652 192.776C193.36 192.776 193.948 192.614 194.416 192.29C194.896 191.954 195.232 191.51 195.424 190.958H197.188C196.924 191.906 196.396 192.68 195.604 193.28C194.812 193.868 193.828 194.162 192.652 194.162C191.716 194.162 190.876 193.952 190.132 193.532C189.4 193.112 188.824 192.518 188.404 191.75C187.984 190.97 187.774 190.07 187.774 189.05C187.774 188.03 187.978 187.136 188.386 186.368C188.794 185.6 189.364 185.012 190.096 184.604C190.84 184.184 191.692 183.974 192.652 183.974C193.588 183.974 194.416 184.178 195.136 184.586C195.856 184.994 196.408 185.558 196.792 186.278C197.188 186.986 197.386 187.79 197.386 188.69ZM195.694 188.348C195.694 187.724 195.556 187.19 195.28 186.746C195.004 186.29 194.626 185.948 194.146 185.72C193.678 185.48 193.156 185.36 192.58 185.36C191.752 185.36 191.044 185.624 190.456 186.152C189.88 186.68 189.55 187.412 189.466 188.348H195.694ZM203.04 194.162C202.284 194.162 201.606 194.036 201.006 193.784C200.406 193.52 199.932 193.16 199.584 192.704C199.236 192.236 199.044 191.702 199.008 191.102H200.7C200.748 191.594 200.976 191.996 201.384 192.308C201.804 192.62 202.35 192.776 203.022 192.776C203.646 192.776 204.138 192.638 204.498 192.362C204.858 192.086 205.038 191.738 205.038 191.318C205.038 190.886 204.846 190.568 204.462 190.364C204.078 190.148 203.484 189.938 202.68 189.734C201.948 189.542 201.348 189.35 200.88 189.158C200.424 188.954 200.028 188.66 199.692 188.276C199.368 187.88 199.206 187.364 199.206 186.728C199.206 186.224 199.356 185.762 199.656 185.342C199.956 184.922 200.382 184.592 200.934 184.352C201.486 184.1 202.116 183.974 202.824 183.974C203.916 183.974 204.798 184.25 205.47 184.802C206.142 185.354 206.502 186.11 206.55 187.07H204.912C204.876 186.554 204.666 186.14 204.282 185.828C203.91 185.516 203.406 185.36 202.77 185.36C202.182 185.36 201.714 185.486 201.366 185.738C201.018 185.99 200.844 186.32 200.844 186.728C200.844 187.052 200.946 187.322 201.15 187.538C201.366 187.742 201.63 187.91 201.942 188.042C202.266 188.162 202.71 188.3 203.274 188.456C203.982 188.648 204.558 188.84 205.002 189.032C205.446 189.212 205.824 189.488 206.136 189.86C206.46 190.232 206.628 190.718 206.64 191.318C206.64 191.858 206.49 192.344 206.19 192.776C205.89 193.208 205.464 193.55 204.912 193.802C204.372 194.042 203.748 194.162 203.04 194.162ZM217.765 185.486H215.695V194H214.057V185.486H212.779V184.136H214.057V183.434C214.057 182.33 214.339 181.526 214.903 181.022C215.479 180.506 216.397 180.248 217.657 180.248V181.616C216.937 181.616 216.427 181.76 216.127 182.048C215.839 182.324 215.695 182.786 215.695 183.434V184.136H217.765V185.486ZM223.977 194.162C223.053 194.162 222.213 193.952 221.457 193.532C220.713 193.112 220.125 192.518 219.693 191.75C219.273 190.97 219.063 190.07 219.063 189.05C219.063 188.042 219.279 187.154 219.711 186.386C220.155 185.606 220.755 185.012 221.511 184.604C222.267 184.184 223.113 183.974 224.049 183.974C224.985 183.974 225.831 184.184 226.587 184.604C227.343 185.012 227.937 185.6 228.369 186.368C228.813 187.136 229.035 188.03 229.035 189.05C229.035 190.07 228.807 190.97 228.351 191.75C227.907 192.518 227.301 193.112 226.533 193.532C225.765 193.952 224.913 194.162 223.977 194.162ZM223.977 192.722C224.565 192.722 225.117 192.584 225.633 192.308C226.149 192.032 226.563 191.618 226.875 191.066C227.199 190.514 227.361 189.842 227.361 189.05C227.361 188.258 227.205 187.586 226.893 187.034C226.581 186.482 226.173 186.074 225.669 185.81C225.165 185.534 224.619 185.396 224.031 185.396C223.431 185.396 222.879 185.534 222.375 185.81C221.883 186.074 221.487 186.482 221.187 187.034C220.887 187.586 220.737 188.258 220.737 189.05C220.737 189.854 220.881 190.532 221.169 191.084C221.469 191.636 221.865 192.05 222.357 192.326C222.849 192.59 223.389 192.722 223.977 192.722ZM232.827 185.738C233.115 185.174 233.523 184.736 234.051 184.424C234.591 184.112 235.245 183.956 236.013 183.956V185.648H235.581C233.745 185.648 232.827 186.644 232.827 188.636V194H231.189V184.136H232.827V185.738ZM-72.92 211.262C-72.836 210.158 -72.41 209.294 -71.642 208.67C-70.874 208.046 -69.878 207.734 -68.654 207.734C-67.838 207.734 -67.136 207.884 -66.548 208.184C-65.948 208.472 -65.498 208.868 -65.198 209.372C-64.886 209.876 -64.73 210.446 -64.73 211.082C-64.73 211.826 -64.946 212.468 -65.378 213.008C-65.798 213.548 -66.35 213.896 -67.034 214.052V214.142C-66.254 214.334 -65.636 214.712 -65.18 215.276C-64.724 215.84 -64.496 216.578 -64.496 217.49C-64.496 218.174 -64.652 218.792 -64.964 219.344C-65.276 219.884 -65.744 220.31 -66.368 220.622C-66.992 220.934 -67.742 221.09 -68.618 221.09C-69.89 221.09 -70.934 220.76 -71.75 220.1C-72.566 219.428 -73.022 218.48 -73.118 217.256H-71.534C-71.45 217.976 -71.156 218.564 -70.652 219.02C-70.148 219.476 -69.476 219.704 -68.636 219.704C-67.796 219.704 -67.16 219.488 -66.728 219.056C-66.284 218.612 -66.062 218.042 -66.062 217.346C-66.062 216.446 -66.362 215.798 -66.962 215.402C-67.562 215.006 -68.468 214.808 -69.68 214.808H-70.094V213.44H-69.662C-68.558 213.428 -67.724 213.248 -67.16 212.9C-66.596 212.54 -66.314 211.988 -66.314 211.244C-66.314 210.608 -66.524 210.098 -66.944 209.714C-67.352 209.33 -67.94 209.138 -68.708 209.138C-69.452 209.138 -70.052 209.33 -70.508 209.714C-70.964 210.098 -71.234 210.614 -71.318 211.262H-72.92ZM-48.7196 211.136L-54.6596 225.644H-56.3516L-54.4076 220.892L-58.3856 211.136H-56.5676L-53.4716 219.128L-50.4116 211.136H-48.7196ZM-38.073 215.69C-38.073 216.002 -38.091 216.332 -38.127 216.68H-46.011C-45.951 217.652 -45.621 218.414 -45.021 218.966C-44.409 219.506 -43.671 219.776 -42.807 219.776C-42.099 219.776 -41.511 219.614 -41.043 219.29C-40.563 218.954 -40.227 218.51 -40.035 217.958H-38.271C-38.535 218.906 -39.063 219.68 -39.855 220.28C-40.647 220.868 -41.631 221.162 -42.807 221.162C-43.743 221.162 -44.583 220.952 -45.327 220.532C-46.059 220.112 -46.635 219.518 -47.055 218.75C-47.475 217.97 -47.685 217.07 -47.685 216.05C-47.685 215.03 -47.481 214.136 -47.073 213.368C-46.665 212.6 -46.095 212.012 -45.363 211.604C-44.619 211.184 -43.767 210.974 -42.807 210.974C-41.871 210.974 -41.043 211.178 -40.323 211.586C-39.603 211.994 -39.051 212.558 -38.667 213.278C-38.271 213.986 -38.073 214.79 -38.073 215.69ZM-39.765 215.348C-39.765 214.724 -39.903 214.19 -40.179 213.746C-40.455 213.29 -40.833 212.948 -41.313 212.72C-41.781 212.48 -42.303 212.36 -42.879 212.36C-43.707 212.36 -44.415 212.624 -45.003 213.152C-45.579 213.68 -45.909 214.412 -45.993 215.348H-39.765ZM-36.5229 216.032C-36.5229 215.024 -36.3189 214.142 -35.9109 213.386C-35.5029 212.618 -34.9449 212.024 -34.2369 211.604C-33.5169 211.184 -32.7189 210.974 -31.8429 210.974C-30.9789 210.974 -30.2289 211.16 -29.5929 211.532C-28.9569 211.904 -28.4829 212.372 -28.1709 212.936V211.136H-26.5149V221H-28.1709V219.164C-28.4949 219.74 -28.9809 220.22 -29.6289 220.604C-30.2649 220.976 -31.0089 221.162 -31.8609 221.162C-32.7369 221.162 -33.5289 220.946 -34.2369 220.514C-34.9449 220.082 -35.5029 219.476 -35.9109 218.696C-36.3189 217.916 -36.5229 217.028 -36.5229 216.032ZM-28.1709 216.05C-28.1709 215.306 -28.3209 214.658 -28.6209 214.106C-28.9209 213.554 -29.3289 213.134 -29.8449 212.846C-30.3489 212.546 -30.9069 212.396 -31.5189 212.396C-32.1309 212.396 -32.6889 212.54 -33.1929 212.828C-33.6969 213.116 -34.0989 213.536 -34.3989 214.088C-34.6989 214.64 -34.8489 215.288 -34.8489 216.032C-34.8489 216.788 -34.6989 217.448 -34.3989 218.012C-34.0989 218.564 -33.6969 218.99 -33.1929 219.29C-32.6889 219.578 -32.1309 219.722 -31.5189 219.722C-30.9069 219.722 -30.3489 219.578 -29.8449 219.29C-29.3289 218.99 -28.9209 218.564 -28.6209 218.012C-28.3209 217.448 -28.1709 216.794 -28.1709 216.05ZM-22.1088 212.738C-21.8208 212.174 -21.4128 211.736 -20.8848 211.424C-20.3448 211.112 -19.6908 210.956 -18.9228 210.956V212.648H-19.3548C-21.1908 212.648 -22.1088 213.644 -22.1088 215.636V221H-23.7468V211.136H-22.1088V212.738ZM-13.54 221.162C-14.296 221.162 -14.974 221.036 -15.574 220.784C-16.174 220.52 -16.648 220.16 -16.996 219.704C-17.344 219.236 -17.536 218.702 -17.572 218.102H-15.88C-15.832 218.594 -15.604 218.996 -15.196 219.308C-14.776 219.62 -14.23 219.776 -13.558 219.776C-12.934 219.776 -12.442 219.638 -12.082 219.362C-11.722 219.086 -11.542 218.738 -11.542 218.318C-11.542 217.886 -11.734 217.568 -12.118 217.364C-12.502 217.148 -13.096 216.938 -13.9 216.734C-14.632 216.542 -15.232 216.35 -15.7 216.158C-16.156 215.954 -16.552 215.66 -16.888 215.276C-17.212 214.88 -17.374 214.364 -17.374 213.728C-17.374 213.224 -17.224 212.762 -16.924 212.342C-16.624 211.922 -16.198 211.592 -15.646 211.352C-15.094 211.1 -14.464 210.974 -13.756 210.974C-12.664 210.974 -11.782 211.25 -11.11 211.802C-10.438 212.354 -10.078 213.11 -10.03 214.07H-11.668C-11.704 213.554 -11.914 213.14 -12.298 212.828C-12.67 212.516 -13.174 212.36 -13.81 212.36C-14.398 212.36 -14.866 212.486 -15.214 212.738C-15.562 212.99 -15.736 213.32 -15.736 213.728C-15.736 214.052 -15.634 214.322 -15.43 214.538C-15.214 214.742 -14.95 214.91 -14.638 215.042C-14.314 215.162 -13.87 215.3 -13.306 215.456C-12.598 215.648 -12.022 215.84 -11.578 216.032C-11.134 216.212 -10.756 216.488 -10.444 216.86C-10.12 217.232 -9.95197 217.718 -9.93997 218.318C-9.93997 218.858 -10.09 219.344 -10.39 219.776C-10.69 220.208 -11.116 220.55 -11.668 220.802C-12.208 221.042 -12.832 221.162 -13.54 221.162ZM-7.10567 221.108C-7.41767 221.108 -7.68167 221 -7.89767 220.784C-8.11367 220.568 -8.22167 220.304 -8.22167 219.992C-8.22167 219.68 -8.11367 219.416 -7.89767 219.2C-7.68167 218.984 -7.41767 218.876 -7.10567 218.876C-6.80567 218.876 -6.55367 218.984 -6.34967 219.2C-6.13367 219.416 -6.02567 219.68 -6.02567 219.992C-6.02567 220.304 -6.13367 220.568 -6.34967 220.784C-6.55367 221 -6.80567 221.108 -7.10567 221.108ZM9.73445 208.454L5.64845 216.266V221H4.01045V216.266L-0.0935469 208.454H1.72445L4.82045 214.808L7.91645 208.454H9.73445ZM15.7642 221.162C14.8402 221.162 14.0002 220.952 13.2442 220.532C12.5002 220.112 11.9122 219.518 11.4802 218.75C11.0602 217.97 10.8502 217.07 10.8502 216.05C10.8502 215.042 11.0662 214.154 11.4982 213.386C11.9422 212.606 12.5422 212.012 13.2982 211.604C14.0542 211.184 14.9002 210.974 15.8362 210.974C16.7722 210.974 17.6182 211.184 18.3742 211.604C19.1302 212.012 19.7242 212.6 20.1562 213.368C20.6002 214.136 20.8222 215.03 20.8222 216.05C20.8222 217.07 20.5942 217.97 20.1382 218.75C19.6942 219.518 19.0882 220.112 18.3202 220.532C17.5522 220.952 16.7002 221.162 15.7642 221.162ZM15.7642 219.722C16.3522 219.722 16.9042 219.584 17.4202 219.308C17.9362 219.032 18.3502 218.618 18.6622 218.066C18.9862 217.514 19.1482 216.842 19.1482 216.05C19.1482 215.258 18.9922 214.586 18.6802 214.034C18.3682 213.482 17.9602 213.074 17.4562 212.81C16.9522 212.534 16.4062 212.396 15.8182 212.396C15.2182 212.396 14.6662 212.534 14.1622 212.81C13.6702 213.074 13.2742 213.482 12.9742 214.034C12.6742 214.586 12.5242 215.258 12.5242 216.05C12.5242 216.854 12.6682 217.532 12.9562 218.084C13.2562 218.636 13.6522 219.05 14.1442 219.326C14.6362 219.59 15.1762 219.722 15.7642 219.722ZM31.7238 211.136V221H30.0858V219.542C29.7738 220.046 29.3358 220.442 28.7718 220.73C28.2198 221.006 27.6078 221.144 26.9358 221.144C26.1678 221.144 25.4778 220.988 24.8658 220.676C24.2538 220.352 23.7678 219.872 23.4078 219.236C23.0598 218.6 22.8858 217.826 22.8858 216.914V211.136H24.5058V216.698C24.5058 217.67 24.7518 218.42 25.2438 218.948C25.7358 219.464 26.4078 219.722 27.2598 219.722C28.1358 219.722 28.8258 219.452 29.3298 218.912C29.8338 218.372 30.0858 217.586 30.0858 216.554V211.136H31.7238ZM36.1275 212.738C36.4155 212.174 36.8235 211.736 37.3515 211.424C37.8915 211.112 38.5455 210.956 39.3135 210.956V212.648H38.8815C37.0455 212.648 36.1275 213.644 36.1275 215.636V221H34.4895V211.136H36.1275V212.738ZM49.4952 221.162C48.7392 221.162 48.0612 221.036 47.4612 220.784C46.8612 220.52 46.3872 220.16 46.0392 219.704C45.6912 219.236 45.4992 218.702 45.4632 218.102H47.1552C47.2032 218.594 47.4312 218.996 47.8392 219.308C48.2592 219.62 48.8052 219.776 49.4772 219.776C50.1012 219.776 50.5932 219.638 50.9532 219.362C51.3132 219.086 51.4932 218.738 51.4932 218.318C51.4932 217.886 51.3012 217.568 50.9172 217.364C50.5332 217.148 49.9392 216.938 49.1352 216.734C48.4032 216.542 47.8032 216.35 47.3352 216.158C46.8792 215.954 46.4832 215.66 46.1472 215.276C45.8232 214.88 45.6612 214.364 45.6612 213.728C45.6612 213.224 45.8112 212.762 46.1112 212.342C46.4112 211.922 46.8372 211.592 47.3892 211.352C47.9412 211.1 48.5712 210.974 49.2792 210.974C50.3712 210.974 51.2532 211.25 51.9252 211.802C52.5972 212.354 52.9572 213.11 53.0052 214.07H51.3672C51.3312 213.554 51.1212 213.14 50.7372 212.828C50.3652 212.516 49.8612 212.36 49.2252 212.36C48.6372 212.36 48.1692 212.486 47.8212 212.738C47.4732 212.99 47.2992 213.32 47.2992 213.728C47.2992 214.052 47.4012 214.322 47.6052 214.538C47.8212 214.742 48.0852 214.91 48.3972 215.042C48.7212 215.162 49.1652 215.3 49.7292 215.456C50.4372 215.648 51.0132 215.84 51.4572 216.032C51.9012 216.212 52.2792 216.488 52.5912 216.86C52.9152 217.232 53.0832 217.718 53.0952 218.318C53.0952 218.858 52.9452 219.344 52.6452 219.776C52.3452 220.208 51.9192 220.55 51.3672 220.802C50.8272 221.042 50.2032 221.162 49.4952 221.162ZM64.4075 215.69C64.4075 216.002 64.3895 216.332 64.3535 216.68H56.4695C56.5295 217.652 56.8595 218.414 57.4595 218.966C58.0715 219.506 58.8095 219.776 59.6735 219.776C60.3815 219.776 60.9695 219.614 61.4375 219.29C61.9175 218.954 62.2535 218.51 62.4455 217.958H64.2095C63.9455 218.906 63.4175 219.68 62.6255 220.28C61.8335 220.868 60.8495 221.162 59.6735 221.162C58.7375 221.162 57.8975 220.952 57.1535 220.532C56.4215 220.112 55.8455 219.518 55.4255 218.75C55.0055 217.97 54.7955 217.07 54.7955 216.05C54.7955 215.03 54.9995 214.136 55.4075 213.368C55.8155 212.6 56.3855 212.012 57.1175 211.604C57.8615 211.184 58.7135 210.974 59.6735 210.974C60.6095 210.974 61.4375 211.178 62.1575 211.586C62.8775 211.994 63.4295 212.558 63.8135 213.278C64.2095 213.986 64.4075 214.79 64.4075 215.69ZM62.7155 215.348C62.7155 214.724 62.5775 214.19 62.3015 213.746C62.0255 213.29 61.6475 212.948 61.1675 212.72C60.6995 212.48 60.1775 212.36 59.6015 212.36C58.7735 212.36 58.0655 212.624 57.4775 213.152C56.9015 213.68 56.5715 214.412 56.4875 215.348H62.7155ZM68.2076 212.738C68.4956 212.174 68.9036 211.736 69.4316 211.424C69.9716 211.112 70.6256 210.956 71.3936 210.956V212.648H70.9616C69.1256 212.648 68.2076 213.644 68.2076 215.636V221H66.5696V211.136H68.2076V212.738ZM76.9564 219.488L80.0164 211.136H81.7624L77.8924 221H75.9844L72.1144 211.136H73.8784L76.9564 219.488ZM84.2203 209.534C83.9083 209.534 83.6443 209.426 83.4283 209.21C83.2123 208.994 83.1043 208.73 83.1043 208.418C83.1043 208.106 83.2123 207.842 83.4283 207.626C83.6443 207.41 83.9083 207.302 84.2203 207.302C84.5203 207.302 84.7723 207.41 84.9763 207.626C85.1923 207.842 85.3003 208.106 85.3003 208.418C85.3003 208.73 85.1923 208.994 84.9763 209.21C84.7723 209.426 84.5203 209.534 84.2203 209.534ZM85.0123 211.136V221H83.3743V211.136H85.0123ZM87.192 216.05C87.192 215.03 87.396 214.142 87.804 213.386C88.212 212.618 88.776 212.024 89.496 211.604C90.228 211.184 91.062 210.974 91.998 210.974C93.21 210.974 94.206 211.268 94.986 211.856C95.778 212.444 96.3 213.26 96.552 214.304H94.788C94.62 213.704 94.29 213.23 93.798 212.882C93.318 212.534 92.718 212.36 91.998 212.36C91.062 212.36 90.306 212.684 89.73 213.332C89.154 213.968 88.866 214.874 88.866 216.05C88.866 217.238 89.154 218.156 89.73 218.804C90.306 219.452 91.062 219.776 91.998 219.776C92.718 219.776 93.318 219.608 93.798 219.272C94.278 218.936 94.608 218.456 94.788 217.832H96.552C96.288 218.84 95.76 219.65 94.968 220.262C94.176 220.862 93.186 221.162 91.998 221.162C91.062 221.162 90.228 220.952 89.496 220.532C88.776 220.112 88.212 219.518 87.804 218.75C87.396 217.982 87.192 217.082 87.192 216.05ZM107.738 215.69C107.738 216.002 107.72 216.332 107.684 216.68H99.7996C99.8596 217.652 100.19 218.414 100.79 218.966C101.402 219.506 102.14 219.776 103.004 219.776C103.712 219.776 104.3 219.614 104.768 219.29C105.248 218.954 105.584 218.51 105.776 217.958H107.54C107.276 218.906 106.748 219.68 105.956 220.28C105.164 220.868 104.18 221.162 103.004 221.162C102.068 221.162 101.228 220.952 100.484 220.532C99.7516 220.112 99.1756 219.518 98.7556 218.75C98.3356 217.97 98.1256 217.07 98.1256 216.05C98.1256 215.03 98.3296 214.136 98.7376 213.368C99.1456 212.6 99.7156 212.012 100.448 211.604C101.192 211.184 102.044 210.974 103.004 210.974C103.94 210.974 104.768 211.178 105.488 211.586C106.208 211.994 106.76 212.558 107.144 213.278C107.54 213.986 107.738 214.79 107.738 215.69ZM106.046 215.348C106.046 214.724 105.908 214.19 105.632 213.746C105.356 213.29 104.978 212.948 104.498 212.72C104.03 212.48 103.508 212.36 102.932 212.36C102.104 212.36 101.396 212.624 100.808 213.152C100.232 213.68 99.9016 214.412 99.8176 215.348H106.046ZM115.545 209.534C115.233 209.534 114.969 209.426 114.753 209.21C114.537 208.994 114.429 208.73 114.429 208.418C114.429 208.106 114.537 207.842 114.753 207.626C114.969 207.41 115.233 207.302 115.545 207.302C115.845 207.302 116.097 207.41 116.301 207.626C116.517 207.842 116.625 208.106 116.625 208.418C116.625 208.73 116.517 208.994 116.301 209.21C116.097 209.426 115.845 209.534 115.545 209.534ZM116.337 211.136V221H114.699V211.136H116.337ZM122.62 221.162C121.864 221.162 121.186 221.036 120.586 220.784C119.986 220.52 119.512 220.16 119.164 219.704C118.816 219.236 118.624 218.702 118.588 218.102H120.28C120.328 218.594 120.556 218.996 120.964 219.308C121.384 219.62 121.93 219.776 122.602 219.776C123.226 219.776 123.718 219.638 124.078 219.362C124.438 219.086 124.618 218.738 124.618 218.318C124.618 217.886 124.426 217.568 124.042 217.364C123.658 217.148 123.064 216.938 122.26 216.734C121.528 216.542 120.928 216.35 120.46 216.158C120.004 215.954 119.608 215.66 119.272 215.276C118.948 214.88 118.786 214.364 118.786 213.728C118.786 213.224 118.936 212.762 119.236 212.342C119.536 211.922 119.962 211.592 120.514 211.352C121.066 211.1 121.696 210.974 122.404 210.974C123.496 210.974 124.378 211.25 125.05 211.802C125.722 212.354 126.082 213.11 126.13 214.07H124.492C124.456 213.554 124.246 213.14 123.862 212.828C123.49 212.516 122.986 212.36 122.35 212.36C121.762 212.36 121.294 212.486 120.946 212.738C120.598 212.99 120.424 213.32 120.424 213.728C120.424 214.052 120.526 214.322 120.73 214.538C120.946 214.742 121.21 214.91 121.522 215.042C121.846 215.162 122.29 215.3 122.854 215.456C123.562 215.648 124.138 215.84 124.582 216.032C125.026 216.212 125.404 216.488 125.716 216.86C126.04 217.232 126.208 217.718 126.22 218.318C126.22 218.858 126.07 219.344 125.77 219.776C125.47 220.208 125.044 220.55 124.492 220.802C123.952 221.042 123.328 221.162 122.62 221.162ZM137.399 210.974C138.251 210.974 138.995 211.16 139.631 211.532C140.279 211.904 140.759 212.372 141.071 212.936V211.136H142.727V221.216C142.727 222.116 142.535 222.914 142.151 223.61C141.767 224.318 141.215 224.87 140.495 225.266C139.787 225.662 138.959 225.86 138.011 225.86C136.715 225.86 135.635 225.554 134.771 224.942C133.907 224.33 133.397 223.496 133.241 222.44H134.861C135.041 223.04 135.413 223.52 135.977 223.88C136.541 224.252 137.219 224.438 138.011 224.438C138.911 224.438 139.643 224.156 140.207 223.592C140.783 223.028 141.071 222.236 141.071 221.216V219.146C140.747 219.722 140.267 220.202 139.631 220.586C138.995 220.97 138.251 221.162 137.399 221.162C136.523 221.162 135.725 220.946 135.005 220.514C134.297 220.082 133.739 219.476 133.331 218.696C132.923 217.916 132.719 217.028 132.719 216.032C132.719 215.024 132.923 214.142 133.331 213.386C133.739 212.618 134.297 212.024 135.005 211.604C135.725 211.184 136.523 210.974 137.399 210.974ZM141.071 216.05C141.071 215.306 140.921 214.658 140.621 214.106C140.321 213.554 139.913 213.134 139.397 212.846C138.893 212.546 138.335 212.396 137.723 212.396C137.111 212.396 136.553 212.54 136.049 212.828C135.545 213.116 135.143 213.536 134.843 214.088C134.543 214.64 134.393 215.288 134.393 216.032C134.393 216.788 134.543 217.448 134.843 218.012C135.143 218.564 135.545 218.99 136.049 219.29C136.553 219.578 137.111 219.722 137.723 219.722C138.335 219.722 138.893 219.578 139.397 219.29C139.913 218.99 140.321 218.564 140.621 218.012C140.921 217.448 141.071 216.794 141.071 216.05ZM147.133 212.738C147.421 212.174 147.829 211.736 148.357 211.424C148.897 211.112 149.551 210.956 150.319 210.956V212.648H149.887C148.051 212.648 147.133 213.644 147.133 215.636V221H145.495V211.136H147.133V212.738ZM161.21 215.69C161.21 216.002 161.192 216.332 161.156 216.68H153.272C153.332 217.652 153.662 218.414 154.262 218.966C154.874 219.506 155.612 219.776 156.476 219.776C157.184 219.776 157.772 219.614 158.24 219.29C158.72 218.954 159.056 218.51 159.248 217.958H161.012C160.748 218.906 160.22 219.68 159.428 220.28C158.636 220.868 157.652 221.162 156.476 221.162C155.54 221.162 154.7 220.952 153.956 220.532C153.224 220.112 152.648 219.518 152.228 218.75C151.808 217.97 151.598 217.07 151.598 216.05C151.598 215.03 151.802 214.136 152.21 213.368C152.618 212.6 153.188 212.012 153.92 211.604C154.664 211.184 155.516 210.974 156.476 210.974C157.412 210.974 158.24 211.178 158.96 211.586C159.68 211.994 160.232 212.558 160.616 213.278C161.012 213.986 161.21 214.79 161.21 215.69ZM159.518 215.348C159.518 214.724 159.38 214.19 159.104 213.746C158.828 213.29 158.45 212.948 157.97 212.72C157.502 212.48 156.98 212.36 156.404 212.36C155.576 212.36 154.868 212.624 154.28 213.152C153.704 213.68 153.374 214.412 153.29 215.348H159.518ZM162.76 216.032C162.76 215.024 162.964 214.142 163.372 213.386C163.78 212.618 164.338 212.024 165.046 211.604C165.766 211.184 166.564 210.974 167.44 210.974C168.304 210.974 169.054 211.16 169.69 211.532C170.326 211.904 170.8 212.372 171.112 212.936V211.136H172.768V221H171.112V219.164C170.788 219.74 170.302 220.22 169.654 220.604C169.018 220.976 168.274 221.162 167.422 221.162C166.546 221.162 165.754 220.946 165.046 220.514C164.338 220.082 163.78 219.476 163.372 218.696C162.964 217.916 162.76 217.028 162.76 216.032ZM171.112 216.05C171.112 215.306 170.962 214.658 170.662 214.106C170.362 213.554 169.954 213.134 169.438 212.846C168.934 212.546 168.376 212.396 167.764 212.396C167.152 212.396 166.594 212.54 166.09 212.828C165.586 213.116 165.184 213.536 164.884 214.088C164.584 214.64 164.434 215.288 164.434 216.032C164.434 216.788 164.584 217.448 164.884 218.012C165.184 218.564 165.586 218.99 166.09 219.29C166.594 219.578 167.152 219.722 167.764 219.722C168.376 219.722 168.934 219.578 169.438 219.29C169.954 218.99 170.362 218.564 170.662 218.012C170.962 217.448 171.112 216.794 171.112 216.05ZM177.534 212.486V218.3C177.534 218.78 177.636 219.122 177.84 219.326C178.044 219.518 178.398 219.614 178.902 219.614H180.108V221H178.632C177.72 221 177.036 220.79 176.58 220.37C176.124 219.95 175.896 219.26 175.896 218.3V212.486H174.618V211.136H175.896V208.652H177.534V211.136H180.108V212.486H177.534ZM183.785 218.732L181.769 223.574H180.671L181.985 218.732H183.785ZM192.098 208.454V221H190.46V208.454H192.098ZM212.829 211.136L209.751 221H208.059L205.683 213.17L203.307 221H201.615L198.519 211.136H200.193L202.461 219.416L204.909 211.136H206.583L208.977 219.434L211.209 211.136H212.829ZM215.3 209.534C214.988 209.534 214.724 209.426 214.508 209.21C214.292 208.994 214.184 208.73 214.184 208.418C214.184 208.106 214.292 207.842 214.508 207.626C214.724 207.41 214.988 207.302 215.3 207.302C215.6 207.302 215.852 207.41 216.056 207.626C216.272 207.842 216.38 208.106 216.38 208.418C216.38 208.73 216.272 208.994 216.056 209.21C215.852 209.426 215.6 209.534 215.3 209.534ZM216.092 211.136V221H214.454V211.136H216.092ZM220.522 207.68V221H218.884V207.68H220.522ZM224.952 207.68V221H223.314V207.68H224.952ZM-73.226 243.05C-73.226 242.03 -73.022 241.142 -72.614 240.386C-72.206 239.618 -71.642 239.024 -70.922 238.604C-70.19 238.184 -69.356 237.974 -68.42 237.974C-67.208 237.974 -66.212 238.268 -65.432 238.856C-64.64 239.444 -64.118 240.26 -63.866 241.304H-65.63C-65.798 240.704 -66.128 240.23 -66.62 239.882C-67.1 239.534 -67.7 239.36 -68.42 239.36C-69.356 239.36 -70.112 239.684 -70.688 240.332C-71.264 240.968 -71.552 241.874 -71.552 243.05C-71.552 244.238 -71.264 245.156 -70.688 245.804C-70.112 246.452 -69.356 246.776 -68.42 246.776C-67.7 246.776 -67.1 246.608 -66.62 246.272C-66.14 245.936 -65.81 245.456 -65.63 244.832H-63.866C-64.13 245.84 -64.658 246.65 -65.45 247.262C-66.242 247.862 -67.232 248.162 -68.42 248.162C-69.356 248.162 -70.19 247.952 -70.922 247.532C-71.642 247.112 -72.206 246.518 -72.614 245.75C-73.022 244.982 -73.226 244.082 -73.226 243.05ZM-57.3784 248.162C-58.3024 248.162 -59.1424 247.952 -59.8984 247.532C-60.6424 247.112 -61.2304 246.518 -61.6624 245.75C-62.0824 244.97 -62.2924 244.07 -62.2924 243.05C-62.2924 242.042 -62.0764 241.154 -61.6444 240.386C-61.2004 239.606 -60.6004 239.012 -59.8444 238.604C-59.0884 238.184 -58.2424 237.974 -57.3064 237.974C-56.3704 237.974 -55.5244 238.184 -54.7684 238.604C-54.0124 239.012 -53.4184 239.6 -52.9864 240.368C-52.5424 241.136 -52.3204 242.03 -52.3204 243.05C-52.3204 244.07 -52.5484 244.97 -53.0044 245.75C-53.4484 246.518 -54.0544 247.112 -54.8224 247.532C-55.5904 247.952 -56.4424 248.162 -57.3784 248.162ZM-57.3784 246.722C-56.7904 246.722 -56.2384 246.584 -55.7224 246.308C-55.2064 246.032 -54.7924 245.618 -54.4804 245.066C-54.1564 244.514 -53.9944 243.842 -53.9944 243.05C-53.9944 242.258 -54.1504 241.586 -54.4624 241.034C-54.7744 240.482 -55.1824 240.074 -55.6864 239.81C-56.1904 239.534 -56.7364 239.396 -57.3244 239.396C-57.9244 239.396 -58.4764 239.534 -58.9804 239.81C-59.4724 240.074 -59.8684 240.482 -60.1684 241.034C-60.4684 241.586 -60.6184 242.258 -60.6184 243.05C-60.6184 243.854 -60.4744 244.532 -60.1864 245.084C-59.8864 245.636 -59.4904 246.05 -58.9984 246.326C-58.5064 246.59 -57.9664 246.722 -57.3784 246.722ZM-45.3607 237.956C-44.1607 237.956 -43.1887 238.322 -42.4447 239.054C-41.7007 239.774 -41.3287 240.818 -41.3287 242.186V248H-42.9487V242.42C-42.9487 241.436 -43.1947 240.686 -43.6867 240.17C-44.1787 239.642 -44.8507 239.378 -45.7027 239.378C-46.5667 239.378 -47.2567 239.648 -47.7727 240.188C-48.2767 240.728 -48.5287 241.514 -48.5287 242.546V248H-50.1667V238.136H-48.5287V239.54C-48.2047 239.036 -47.7667 238.646 -47.2147 238.37C-46.6507 238.094 -46.0327 237.956 -45.3607 237.956ZM-36.6551 239.486V245.3C-36.6551 245.78 -36.5531 246.122 -36.3491 246.326C-36.1451 246.518 -35.7911 246.614 -35.2871 246.614H-34.0811V248H-35.5571C-36.4691 248 -37.1531 247.79 -37.6091 247.37C-38.0651 246.95 -38.2931 246.26 -38.2931 245.3V239.486H-39.5711V238.136H-38.2931V235.652H-36.6551V238.136H-34.0811V239.486H-36.6551ZM-31.2504 236.534C-31.5624 236.534 -31.8264 236.426 -32.0424 236.21C-32.2584 235.994 -32.3664 235.73 -32.3664 235.418C-32.3664 235.106 -32.2584 234.842 -32.0424 234.626C-31.8264 234.41 -31.5624 234.302 -31.2504 234.302C-30.9504 234.302 -30.6984 234.41 -30.4944 234.626C-30.2784 234.842 -30.1704 235.106 -30.1704 235.418C-30.1704 235.73 -30.2784 235.994 -30.4944 236.21C-30.6984 236.426 -30.9504 236.534 -31.2504 236.534ZM-30.4584 238.136V248H-32.0964V238.136H-30.4584ZM-22.8607 237.956C-21.6607 237.956 -20.6887 238.322 -19.9447 239.054C-19.2007 239.774 -18.8287 240.818 -18.8287 242.186V248H-20.4487V242.42C-20.4487 241.436 -20.6947 240.686 -21.1867 240.17C-21.6787 239.642 -22.3507 239.378 -23.2027 239.378C-24.0667 239.378 -24.7567 239.648 -25.2727 240.188C-25.7767 240.728 -26.0287 241.514 -26.0287 242.546V248H-27.6667V238.136H-26.0287V239.54C-25.7047 239.036 -25.2667 238.646 -24.7147 238.37C-24.1507 238.094 -23.5327 237.956 -22.8607 237.956ZM-7.40506 238.136V248H-9.04306V246.542C-9.35506 247.046 -9.79306 247.442 -10.3571 247.73C-10.9091 248.006 -11.5211 248.144 -12.1931 248.144C-12.9611 248.144 -13.6511 247.988 -14.2631 247.676C-14.8751 247.352 -15.3611 246.872 -15.7211 246.236C-16.0691 245.6 -16.2431 244.826 -16.2431 243.914V238.136H-14.6231V243.698C-14.6231 244.67 -14.3771 245.42 -13.8851 245.948C-13.3931 246.464 -12.7211 246.722 -11.8691 246.722C-10.9931 246.722 -10.3031 246.452 -9.79906 245.912C-9.29506 245.372 -9.04306 244.586 -9.04306 243.554V238.136H-7.40506ZM4.36061 242.69C4.36061 243.002 4.34261 243.332 4.30661 243.68H-3.57739C-3.51739 244.652 -3.18739 245.414 -2.58739 245.966C-1.97539 246.506 -1.23739 246.776 -0.37339 246.776C0.33461 246.776 0.92261 246.614 1.39061 246.29C1.87061 245.954 2.20661 245.51 2.39861 244.958H4.16261C3.89861 245.906 3.37061 246.68 2.57861 247.28C1.78661 247.868 0.80261 248.162 -0.37339 248.162C-1.30939 248.162 -2.14939 247.952 -2.89339 247.532C-3.62539 247.112 -4.20139 246.518 -4.62139 245.75C-5.04139 244.97 -5.25139 244.07 -5.25139 243.05C-5.25139 242.03 -5.04739 241.136 -4.63939 240.368C-4.23139 239.6 -3.66139 239.012 -2.92939 238.604C-2.18539 238.184 -1.33339 237.974 -0.37339 237.974C0.56261 237.974 1.39061 238.178 2.11061 238.586C2.83061 238.994 3.38261 239.558 3.76661 240.278C4.16261 240.986 4.36061 241.79 4.36061 242.69ZM2.66861 242.348C2.66861 241.724 2.53061 241.19 2.25461 240.746C1.97861 240.29 1.60061 239.948 1.12061 239.72C0.65261 239.48 0.13061 239.36 -0.445391 239.36C-1.27339 239.36 -1.98139 239.624 -2.56939 240.152C-3.14539 240.68 -3.47539 241.412 -3.55939 242.348H2.66861ZM13.3195 239.486V245.3C13.3195 245.78 13.4215 246.122 13.6255 246.326C13.8295 246.518 14.1835 246.614 14.6875 246.614H15.8935V248H14.4175C13.5055 248 12.8215 247.79 12.3655 247.37C11.9095 246.95 11.6815 246.26 11.6815 245.3V239.486H10.4035V238.136H11.6815V235.652H13.3195V238.136H15.8935V239.486H13.3195ZM22.1802 248.162C21.2562 248.162 20.4162 247.952 19.6602 247.532C18.9162 247.112 18.3282 246.518 17.8962 245.75C17.4762 244.97 17.2662 244.07 17.2662 243.05C17.2662 242.042 17.4822 241.154 17.9142 240.386C18.3582 239.606 18.9582 239.012 19.7142 238.604C20.4702 238.184 21.3162 237.974 22.2522 237.974C23.1882 237.974 24.0342 238.184 24.7902 238.604C25.5462 239.012 26.1402 239.6 26.5722 240.368C27.0162 241.136 27.2382 242.03 27.2382 243.05C27.2382 244.07 27.0102 244.97 26.5542 245.75C26.1102 246.518 25.5042 247.112 24.7362 247.532C23.9682 247.952 23.1162 248.162 22.1802 248.162ZM22.1802 246.722C22.7682 246.722 23.3202 246.584 23.8362 246.308C24.3522 246.032 24.7662 245.618 25.0782 245.066C25.4022 244.514 25.5642 243.842 25.5642 243.05C25.5642 242.258 25.4082 241.586 25.0962 241.034C24.7842 240.482 24.3762 240.074 23.8722 239.81C23.3682 239.534 22.8222 239.396 22.2342 239.396C21.6342 239.396 21.0822 239.534 20.5782 239.81C20.0862 240.074 19.6902 240.482 19.3902 241.034C19.0902 241.586 18.9402 242.258 18.9402 243.05C18.9402 243.854 19.0842 244.532 19.3722 245.084C19.6722 245.636 20.0682 246.05 20.5602 246.326C21.0522 246.59 21.5922 246.722 22.1802 246.722ZM42.9387 238.136V248H41.3007V246.542C40.9887 247.046 40.5507 247.442 39.9867 247.73C39.4347 248.006 38.8227 248.144 38.1507 248.144C37.3827 248.144 36.6927 247.988 36.0807 247.676C35.4687 247.352 34.9827 246.872 34.6227 246.236C34.2747 245.6 34.1007 244.826 34.1007 243.914V238.136H35.7207V243.698C35.7207 244.67 35.9667 245.42 36.4587 245.948C36.9507 246.464 37.6227 246.722 38.4747 246.722C39.3507 246.722 40.0407 246.452 40.5447 245.912C41.0487 245.372 41.3007 244.586 41.3007 243.554V238.136H42.9387ZM49.1964 248.162C48.4404 248.162 47.7624 248.036 47.1624 247.784C46.5624 247.52 46.0884 247.16 45.7404 246.704C45.3924 246.236 45.2004 245.702 45.1644 245.102H46.8564C46.9044 245.594 47.1324 245.996 47.5404 246.308C47.9604 246.62 48.5064 246.776 49.1784 246.776C49.8024 246.776 50.2944 246.638 50.6544 246.362C51.0144 246.086 51.1944 245.738 51.1944 245.318C51.1944 244.886 51.0024 244.568 50.6184 244.364C50.2344 244.148 49.6404 243.938 48.8364 243.734C48.1044 243.542 47.5044 243.35 47.0364 243.158C46.5804 242.954 46.1844 242.66 45.8484 242.276C45.5244 241.88 45.3624 241.364 45.3624 240.728C45.3624 240.224 45.5124 239.762 45.8124 239.342C46.1124 238.922 46.5384 238.592 47.0904 238.352C47.6424 238.1 48.2724 237.974 48.9804 237.974C50.0724 237.974 50.9544 238.25 51.6264 238.802C52.2984 239.354 52.6584 240.11 52.7064 241.07H51.0684C51.0324 240.554 50.8224 240.14 50.4384 239.828C50.0664 239.516 49.5624 239.36 48.9264 239.36C48.3384 239.36 47.8704 239.486 47.5224 239.738C47.1744 239.99 47.0004 240.32 47.0004 240.728C47.0004 241.052 47.1024 241.322 47.3064 241.538C47.5224 241.742 47.7864 241.91 48.0984 242.042C48.4224 242.162 48.8664 242.3 49.4304 242.456C50.1384 242.648 50.7144 242.84 51.1584 243.032C51.6024 243.212 51.9804 243.488 52.2924 243.86C52.6164 244.232 52.7844 244.718 52.7964 245.318C52.7964 245.858 52.6464 246.344 52.3464 246.776C52.0464 247.208 51.6204 247.55 51.0684 247.802C50.5284 248.042 49.9044 248.162 49.1964 248.162ZM64.1087 242.69C64.1087 243.002 64.0907 243.332 64.0547 243.68H56.1707C56.2307 244.652 56.5607 245.414 57.1607 245.966C57.7727 246.506 58.5107 246.776 59.3747 246.776C60.0827 246.776 60.6707 246.614 61.1387 246.29C61.6187 245.954 61.9547 245.51 62.1467 244.958H63.9107C63.6467 245.906 63.1187 246.68 62.3267 247.28C61.5347 247.868 60.5507 248.162 59.3747 248.162C58.4387 248.162 57.5987 247.952 56.8547 247.532C56.1227 247.112 55.5467 246.518 55.1267 245.75C54.7067 244.97 54.4967 244.07 54.4967 243.05C54.4967 242.03 54.7007 241.136 55.1087 240.368C55.5167 239.6 56.0867 239.012 56.8187 238.604C57.5627 238.184 58.4147 237.974 59.3747 237.974C60.3107 237.974 61.1387 238.178 61.8587 238.586C62.5787 238.994 63.1307 239.558 63.5147 240.278C63.9107 240.986 64.1087 241.79 64.1087 242.69ZM62.4167 242.348C62.4167 241.724 62.2787 241.19 62.0027 240.746C61.7267 240.29 61.3487 239.948 60.8687 239.72C60.4007 239.48 59.8787 239.36 59.3027 239.36C58.4747 239.36 57.7667 239.624 57.1787 240.152C56.6027 240.68 56.2727 241.412 56.1887 242.348H62.4167ZM79.5656 238.136L73.6256 252.644H71.9336L73.8776 247.892L69.8996 238.136H71.7176L74.8136 246.128L77.8736 238.136H79.5656ZM85.5142 248.162C84.5902 248.162 83.7502 247.952 82.9942 247.532C82.2502 247.112 81.6622 246.518 81.2302 245.75C80.8102 244.97 80.6002 244.07 80.6002 243.05C80.6002 242.042 80.8162 241.154 81.2482 240.386C81.6922 239.606 82.2922 239.012 83.0482 238.604C83.8042 238.184 84.6502 237.974 85.5862 237.974C86.5222 237.974 87.3682 238.184 88.1242 238.604C88.8802 239.012 89.4742 239.6 89.9062 240.368C90.3502 241.136 90.5722 242.03 90.5722 243.05C90.5722 244.07 90.3442 244.97 89.8882 245.75C89.4442 246.518 88.8382 247.112 88.0702 247.532C87.3022 247.952 86.4502 248.162 85.5142 248.162ZM85.5142 246.722C86.1022 246.722 86.6542 246.584 87.1702 246.308C87.6862 246.032 88.1002 245.618 88.4122 245.066C88.7362 244.514 88.8982 243.842 88.8982 243.05C88.8982 242.258 88.7422 241.586 88.4302 241.034C88.1182 240.482 87.7102 240.074 87.2062 239.81C86.7022 239.534 86.1562 239.396 85.5682 239.396C84.9682 239.396 84.4162 239.534 83.9122 239.81C83.4202 240.074 83.0242 240.482 82.7242 241.034C82.4242 241.586 82.2742 242.258 82.2742 243.05C82.2742 243.854 82.4182 244.532 82.7062 245.084C83.0062 245.636 83.4022 246.05 83.8942 246.326C84.3862 246.59 84.9262 246.722 85.5142 246.722ZM101.474 238.136V248H99.8358V246.542C99.5238 247.046 99.0858 247.442 98.5218 247.73C97.9698 248.006 97.3578 248.144 96.6858 248.144C95.9178 248.144 95.2278 247.988 94.6158 247.676C94.0038 247.352 93.5178 246.872 93.1578 246.236C92.8098 245.6 92.6358 244.826 92.6358 243.914V238.136H94.2558V243.698C94.2558 244.67 94.5018 245.42 94.9938 245.948C95.4858 246.464 96.1578 246.722 97.0098 246.722C97.8858 246.722 98.5758 246.452 99.0798 245.912C99.5838 245.372 99.8358 244.586 99.8358 243.554V238.136H101.474ZM105.878 239.738C106.166 239.174 106.574 238.736 107.102 238.424C107.642 238.112 108.296 237.956 109.064 237.956V239.648H108.632C106.796 239.648 105.878 240.644 105.878 242.636V248H104.24V238.136H105.878V239.738ZM119.245 248.162C118.489 248.162 117.811 248.036 117.211 247.784C116.611 247.52 116.137 247.16 115.789 246.704C115.441 246.236 115.249 245.702 115.213 245.102H116.905C116.953 245.594 117.181 245.996 117.589 246.308C118.009 246.62 118.555 246.776 119.227 246.776C119.851 246.776 120.343 246.638 120.703 246.362C121.063 246.086 121.243 245.738 121.243 245.318C121.243 244.886 121.051 244.568 120.667 244.364C120.283 244.148 119.689 243.938 118.885 243.734C118.153 243.542 117.553 243.35 117.085 243.158C116.629 242.954 116.233 242.66 115.897 242.276C115.573 241.88 115.411 241.364 115.411 240.728C115.411 240.224 115.561 239.762 115.861 239.342C116.161 238.922 116.587 238.592 117.139 238.352C117.691 238.1 118.321 237.974 119.029 237.974C120.121 237.974 121.003 238.25 121.675 238.802C122.347 239.354 122.707 240.11 122.755 241.07H121.117C121.081 240.554 120.871 240.14 120.487 239.828C120.115 239.516 119.611 239.36 118.975 239.36C118.387 239.36 117.919 239.486 117.571 239.738C117.223 239.99 117.049 240.32 117.049 240.728C117.049 241.052 117.151 241.322 117.355 241.538C117.571 241.742 117.835 241.91 118.147 242.042C118.471 242.162 118.915 242.3 119.479 242.456C120.187 242.648 120.763 242.84 121.207 243.032C121.651 243.212 122.029 243.488 122.341 243.86C122.665 244.232 122.833 244.718 122.845 245.318C122.845 245.858 122.695 246.344 122.395 246.776C122.095 247.208 121.669 247.55 121.117 247.802C120.577 248.042 119.953 248.162 119.245 248.162ZM134.157 242.69C134.157 243.002 134.139 243.332 134.103 243.68H126.219C126.279 244.652 126.609 245.414 127.209 245.966C127.821 246.506 128.559 246.776 129.423 246.776C130.131 246.776 130.719 246.614 131.187 246.29C131.667 245.954 132.003 245.51 132.195 244.958H133.959C133.695 245.906 133.167 246.68 132.375 247.28C131.583 247.868 130.599 248.162 129.423 248.162C128.487 248.162 127.647 247.952 126.903 247.532C126.171 247.112 125.595 246.518 125.175 245.75C124.755 244.97 124.545 244.07 124.545 243.05C124.545 242.03 124.749 241.136 125.157 240.368C125.565 239.6 126.135 239.012 126.867 238.604C127.611 238.184 128.463 237.974 129.423 237.974C130.359 237.974 131.187 238.178 131.907 238.586C132.627 238.994 133.179 239.558 133.563 240.278C133.959 240.986 134.157 241.79 134.157 242.69ZM132.465 242.348C132.465 241.724 132.327 241.19 132.051 240.746C131.775 240.29 131.397 239.948 130.917 239.72C130.449 239.48 129.927 239.36 129.351 239.36C128.523 239.36 127.815 239.624 127.227 240.152C126.651 240.68 126.321 241.412 126.237 242.348H132.465ZM137.958 239.738C138.246 239.174 138.654 238.736 139.182 238.424C139.722 238.112 140.376 237.956 141.144 237.956V239.648H140.712C138.876 239.648 137.958 240.644 137.958 242.636V248H136.32V238.136H137.958V239.738ZM146.706 246.488L149.766 238.136H151.512L147.642 248H145.734L141.864 238.136H143.628L146.706 246.488ZM153.97 236.534C153.658 236.534 153.394 236.426 153.178 236.21C152.962 235.994 152.854 235.73 152.854 235.418C152.854 235.106 152.962 234.842 153.178 234.626C153.394 234.41 153.658 234.302 153.97 234.302C154.27 234.302 154.522 234.41 154.726 234.626C154.942 234.842 155.05 235.106 155.05 235.418C155.05 235.73 154.942 235.994 154.726 236.21C154.522 236.426 154.27 236.534 153.97 236.534ZM154.762 238.136V248H153.124V238.136H154.762ZM156.942 243.05C156.942 242.03 157.146 241.142 157.554 240.386C157.962 239.618 158.526 239.024 159.246 238.604C159.978 238.184 160.812 237.974 161.748 237.974C162.96 237.974 163.956 238.268 164.736 238.856C165.528 239.444 166.05 240.26 166.302 241.304H164.538C164.37 240.704 164.04 240.23 163.548 239.882C163.068 239.534 162.468 239.36 161.748 239.36C160.812 239.36 160.056 239.684 159.48 240.332C158.904 240.968 158.616 241.874 158.616 243.05C158.616 244.238 158.904 245.156 159.48 245.804C160.056 246.452 160.812 246.776 161.748 246.776C162.468 246.776 163.068 246.608 163.548 246.272C164.028 245.936 164.358 245.456 164.538 244.832H166.302C166.038 245.84 165.51 246.65 164.718 247.262C163.926 247.862 162.936 248.162 161.748 248.162C160.812 248.162 159.978 247.952 159.246 247.532C158.526 247.112 157.962 246.518 157.554 245.75C157.146 244.982 156.942 244.082 156.942 243.05ZM177.488 242.69C177.488 243.002 177.47 243.332 177.434 243.68H169.55C169.61 244.652 169.94 245.414 170.54 245.966C171.152 246.506 171.89 246.776 172.754 246.776C173.462 246.776 174.05 246.614 174.518 246.29C174.998 245.954 175.334 245.51 175.526 244.958H177.29C177.026 245.906 176.498 246.68 175.706 247.28C174.914 247.868 173.93 248.162 172.754 248.162C171.818 248.162 170.978 247.952 170.234 247.532C169.502 247.112 168.926 246.518 168.506 245.75C168.086 244.97 167.876 244.07 167.876 243.05C167.876 242.03 168.08 241.136 168.488 240.368C168.896 239.6 169.466 239.012 170.198 238.604C170.942 238.184 171.794 237.974 172.754 237.974C173.69 237.974 174.518 238.178 175.238 238.586C175.958 238.994 176.51 239.558 176.894 240.278C177.29 240.986 177.488 241.79 177.488 242.69ZM175.796 242.348C175.796 241.724 175.658 241.19 175.382 240.746C175.106 240.29 174.728 239.948 174.248 239.72C173.78 239.48 173.258 239.36 172.682 239.36C171.854 239.36 171.146 239.624 170.558 240.152C169.982 240.68 169.652 241.412 169.568 242.348H175.796ZM180.172 248.108C179.86 248.108 179.596 248 179.38 247.784C179.164 247.568 179.056 247.304 179.056 246.992C179.056 246.68 179.164 246.416 179.38 246.2C179.596 245.984 179.86 245.876 180.172 245.876C180.472 245.876 180.724 245.984 180.928 246.2C181.144 246.416 181.252 246.68 181.252 246.992C181.252 247.304 181.144 247.568 180.928 247.784C180.724 248 180.472 248.108 180.172 248.108ZM183.681 235.454H185.499L183.771 239.54H182.619L183.681 235.454ZM186.597 235.454H188.415L186.687 239.54H185.517L186.597 235.454Z" fill="#282828"/>
<path d="M-63.104 355.32V367.344C-63.104 368.832 -63.56 370.008 -64.472 370.872C-65.368 371.736 -66.552 372.168 -68.024 372.168C-69.496 372.168 -70.688 371.736 -71.6 370.872C-72.496 370.008 -72.944 368.832 -72.944 367.344H-70.184C-70.168 368.08 -69.984 368.664 -69.632 369.096C-69.264 369.528 -68.728 369.744 -68.024 369.744C-67.32 369.744 -66.784 369.528 -66.416 369.096C-66.048 368.648 -65.864 368.064 -65.864 367.344V355.32H-63.104ZM-46.5331 365.064C-46.5331 365.56 -46.5651 366.008 -46.6291 366.408H-56.7331C-56.6531 367.464 -56.2611 368.312 -55.5571 368.952C-54.8531 369.592 -53.9891 369.912 -52.9651 369.912C-51.4931 369.912 -50.4531 369.296 -49.8451 368.064H-46.8931C-47.2931 369.28 -48.0211 370.28 -49.0771 371.064C-50.1171 371.832 -51.4131 372.216 -52.9651 372.216C-54.2291 372.216 -55.3651 371.936 -56.3731 371.376C-57.3651 370.8 -58.1491 370 -58.7251 368.976C-59.2851 367.936 -59.5651 366.736 -59.5651 365.376C-59.5651 364.016 -59.2931 362.824 -58.7491 361.8C-58.1891 360.76 -57.4131 359.96 -56.4211 359.4C-55.4131 358.84 -54.2611 358.56 -52.9651 358.56C-51.7171 358.56 -50.6051 358.832 -49.6291 359.376C-48.6531 359.92 -47.8931 360.688 -47.3491 361.68C-46.8051 362.656 -46.5331 363.784 -46.5331 365.064ZM-49.3891 364.2C-49.4051 363.192 -49.7651 362.384 -50.4691 361.776C-51.1731 361.168 -52.0451 360.864 -53.0851 360.864C-54.0291 360.864 -54.8371 361.168 -55.5091 361.776C-56.1811 362.368 -56.5811 363.176 -56.7091 364.2H-49.3891ZM-37.1686 358.56C-36.1286 358.56 -35.2006 358.776 -34.3846 359.208C-33.5526 359.64 -32.9046 360.28 -32.4406 361.128C-31.9766 361.976 -31.7446 363 -31.7446 364.2V372H-34.4566V364.608C-34.4566 363.424 -34.7526 362.52 -35.3446 361.896C-35.9366 361.256 -36.7446 360.936 -37.7686 360.936C-38.7926 360.936 -39.6086 361.256 -40.2166 361.896C-40.8086 362.52 -41.1046 363.424 -41.1046 364.608V372H-43.8406V358.776H-41.1046V360.288C-40.6566 359.744 -40.0886 359.32 -39.4006 359.016C-38.6966 358.712 -37.9526 358.56 -37.1686 358.56ZM-21.5827 358.56C-20.5427 358.56 -19.6147 358.776 -18.7987 359.208C-17.9667 359.64 -17.3187 360.28 -16.8547 361.128C-16.3907 361.976 -16.1587 363 -16.1587 364.2V372H-18.8707V364.608C-18.8707 363.424 -19.1667 362.52 -19.7587 361.896C-20.3507 361.256 -21.1587 360.936 -22.1827 360.936C-23.2067 360.936 -24.0227 361.256 -24.6307 361.896C-25.2227 362.52 -25.5187 363.424 -25.5187 364.608V372H-28.2547V358.776H-25.5187V360.288C-25.0707 359.744 -24.5027 359.32 -23.8147 359.016C-23.1107 358.712 -22.3667 358.56 -21.5827 358.56ZM-0.764749 358.776L-8.87675 378.216H-11.7087L-9.02075 371.784L-14.2287 358.776H-11.1807L-7.46075 368.856L-3.59675 358.776H-0.764749ZM29.2544 355.32L24.3104 372H21.2144L17.7104 359.376L13.9904 372L10.9184 372.024L6.19038 355.32H9.09438L12.5504 368.904L16.2944 355.32H19.3664L22.8464 368.832L26.3264 355.32H29.2544ZM32.9029 357.024C32.4069 357.024 31.9909 356.856 31.6549 356.52C31.3189 356.184 31.1509 355.768 31.1509 355.272C31.1509 354.776 31.3189 354.36 31.6549 354.024C31.9909 353.688 32.4069 353.52 32.9029 353.52C33.3829 353.52 33.7909 353.688 34.1269 354.024C34.4629 354.36 34.6309 354.776 34.6309 355.272C34.6309 355.768 34.4629 356.184 34.1269 356.52C33.7909 356.856 33.3829 357.024 32.9029 357.024ZM34.2469 358.776V372H31.5109V358.776H34.2469ZM40.5751 354.24V372H37.8391V354.24H40.5751ZM48.9672 372.216C47.9272 372.216 46.9912 372.032 46.1592 371.664C45.3432 371.28 44.6952 370.768 44.2152 370.128C43.7352 369.472 43.4792 368.744 43.4472 367.944H46.2792C46.3272 368.504 46.5912 368.976 47.0712 369.36C47.5672 369.728 48.1832 369.912 48.9192 369.912C49.6872 369.912 50.2792 369.768 50.6952 369.48C51.1272 369.176 51.3432 368.792 51.3432 368.328C51.3432 367.832 51.1032 367.464 50.6232 367.224C50.1592 366.984 49.4152 366.72 48.3912 366.432C47.3992 366.16 46.5912 365.896 45.9672 365.64C45.3432 365.384 44.7992 364.992 44.3352 364.464C43.8872 363.936 43.6632 363.24 43.6632 362.376C43.6632 361.672 43.8712 361.032 44.2872 360.456C44.7032 359.864 45.2952 359.4 46.0632 359.064C46.8472 358.728 47.7432 358.56 48.7512 358.56C50.2552 358.56 51.4632 358.944 52.3752 359.712C53.3032 360.464 53.7992 361.496 53.8632 362.808H51.1272C51.0792 362.216 50.8392 361.744 50.4072 361.392C49.9752 361.04 49.3912 360.864 48.6552 360.864C47.9352 360.864 47.3832 361 46.9992 361.272C46.6152 361.544 46.4232 361.904 46.4232 362.352C46.4232 362.704 46.5512 363 46.8072 363.24C47.0632 363.48 47.3752 363.672 47.7432 363.816C48.1112 363.944 48.6552 364.112 49.3752 364.32C50.3352 364.576 51.1192 364.84 51.7272 365.112C52.3512 365.368 52.8872 365.752 53.3352 366.264C53.7832 366.776 54.0152 367.456 54.0312 368.304C54.0312 369.056 53.8232 369.728 53.4072 370.32C52.9912 370.912 52.3992 371.376 51.6312 371.712C50.8792 372.048 49.9912 372.216 48.9672 372.216ZM62.7235 372.216C61.4755 372.216 60.3475 371.936 59.3395 371.376C58.3315 370.8 57.5395 370 56.9635 368.976C56.3875 367.936 56.0995 366.736 56.0995 365.376C56.0995 364.032 56.3955 362.84 56.9875 361.8C57.5795 360.76 58.3875 359.96 59.4115 359.4C60.4355 358.84 61.5795 358.56 62.8435 358.56C64.1075 358.56 65.2515 358.84 66.2755 359.4C67.2995 359.96 68.1075 360.76 68.6995 361.8C69.2915 362.84 69.5875 364.032 69.5875 365.376C69.5875 366.72 69.2835 367.912 68.6755 368.952C68.0675 369.992 67.2355 370.8 66.1795 371.376C65.1395 371.936 63.9875 372.216 62.7235 372.216ZM62.7235 369.84C63.4275 369.84 64.0835 369.672 64.6915 369.336C65.3155 369 65.8195 368.496 66.2035 367.824C66.5875 367.152 66.7795 366.336 66.7795 365.376C66.7795 364.416 66.5955 363.608 66.2275 362.952C65.8595 362.28 65.3715 361.776 64.7635 361.44C64.1555 361.104 63.4995 360.936 62.7955 360.936C62.0915 360.936 61.4355 361.104 60.8275 361.44C60.2355 361.776 59.7635 362.28 59.4115 362.952C59.0595 363.608 58.8835 364.416 58.8835 365.376C58.8835 366.8 59.2435 367.904 59.9635 368.688C60.6995 369.456 61.6195 369.84 62.7235 369.84ZM78.9642 358.56C80.0042 358.56 80.9322 358.776 81.7482 359.208C82.5802 359.64 83.2282 360.28 83.6922 361.128C84.1562 361.976 84.3882 363 84.3882 364.2V372H81.6762V364.608C81.6762 363.424 81.3802 362.52 80.7882 361.896C80.1962 361.256 79.3882 360.936 78.3642 360.936C77.3402 360.936 76.5242 361.256 75.9162 361.896C75.3242 362.52 75.0282 363.424 75.0282 364.608V372H72.2922V358.776H75.0282V360.288C75.4762 359.744 76.0442 359.32 76.7322 359.016C77.4362 358.712 78.1802 358.56 78.9642 358.56Z" fill="#252525"/>
<path d="M-67.406 388.242V389.278H-71.648V392.568H-68.204V393.604H-71.648V398H-72.922V388.242H-67.406ZM-64.5933 391.574C-64.3693 391.135 -64.052 390.795 -63.6413 390.552C-63.2213 390.309 -62.7126 390.188 -62.1153 390.188V391.504H-62.4513C-63.8793 391.504 -64.5933 392.279 -64.5933 393.828V398H-65.8673V390.328H-64.5933V391.574ZM-57.2987 398.126C-58.0173 398.126 -58.6707 397.963 -59.2587 397.636C-59.8373 397.309 -60.2947 396.847 -60.6307 396.25C-60.9573 395.643 -61.1207 394.943 -61.1207 394.15C-61.1207 393.366 -60.9527 392.675 -60.6167 392.078C-60.2713 391.471 -59.8047 391.009 -59.2167 390.692C-58.6287 390.365 -57.9707 390.202 -57.2427 390.202C-56.5147 390.202 -55.8567 390.365 -55.2687 390.692C-54.6807 391.009 -54.2187 391.467 -53.8827 392.064C-53.5373 392.661 -53.3647 393.357 -53.3647 394.15C-53.3647 394.943 -53.542 395.643 -53.8967 396.25C-54.242 396.847 -54.7133 397.309 -55.3107 397.636C-55.908 397.963 -56.5707 398.126 -57.2987 398.126ZM-57.2987 397.006C-56.8413 397.006 -56.412 396.899 -56.0107 396.684C-55.6093 396.469 -55.2873 396.147 -55.0447 395.718C-54.7927 395.289 -54.6667 394.766 -54.6667 394.15C-54.6667 393.534 -54.788 393.011 -55.0307 392.582C-55.2733 392.153 -55.5907 391.835 -55.9827 391.63C-56.3747 391.415 -56.7993 391.308 -57.2567 391.308C-57.7233 391.308 -58.1527 391.415 -58.5447 391.63C-58.9273 391.835 -59.2353 392.153 -59.4687 392.582C-59.702 393.011 -59.8187 393.534 -59.8187 394.15C-59.8187 394.775 -59.7067 395.303 -59.4827 395.732C-59.2493 396.161 -58.9413 396.483 -58.5587 396.698C-58.176 396.903 -57.756 397.006 -57.2987 397.006ZM-42.4636 390.188C-41.8662 390.188 -41.3342 390.314 -40.8676 390.566C-40.4009 390.809 -40.0322 391.177 -39.7616 391.672C-39.4909 392.167 -39.3556 392.769 -39.3556 393.478V398H-40.6156V393.66C-40.6156 392.895 -40.8069 392.311 -41.1896 391.91C-41.5629 391.499 -42.0716 391.294 -42.7156 391.294C-43.3782 391.294 -43.9056 391.509 -44.2976 391.938C-44.6896 392.358 -44.8856 392.969 -44.8856 393.772V398H-46.1456V393.66C-46.1456 392.895 -46.3369 392.311 -46.7196 391.91C-47.0929 391.499 -47.6016 391.294 -48.2456 391.294C-48.9082 391.294 -49.4356 391.509 -49.8276 391.938C-50.2196 392.358 -50.4156 392.969 -50.4156 393.772V398H-51.6896V390.328H-50.4156V391.434C-50.1636 391.033 -49.8276 390.725 -49.4076 390.51C-48.9782 390.295 -48.5069 390.188 -47.9936 390.188C-47.3496 390.188 -46.7802 390.333 -46.2856 390.622C-45.7909 390.911 -45.4222 391.336 -45.1796 391.896C-44.9649 391.355 -44.6102 390.935 -44.1156 390.636C-43.6209 390.337 -43.0702 390.188 -42.4636 390.188ZM-25.8613 398H-27.1353L-32.2593 390.23V398H-33.5333V388.228H-32.2593L-27.1353 395.984V388.228H-25.8613V398ZM-16.6896 393.87C-16.6896 394.113 -16.7036 394.369 -16.7316 394.64H-22.8636C-22.8169 395.396 -22.5602 395.989 -22.0936 396.418C-21.6176 396.838 -21.0436 397.048 -20.3716 397.048C-19.8209 397.048 -19.3636 396.922 -18.9996 396.67C-18.6262 396.409 -18.3649 396.063 -18.2156 395.634H-16.8436C-17.0489 396.371 -17.4596 396.973 -18.0756 397.44C-18.6916 397.897 -19.4569 398.126 -20.3716 398.126C-21.0996 398.126 -21.7529 397.963 -22.3316 397.636C-22.9009 397.309 -23.3489 396.847 -23.6756 396.25C-24.0022 395.643 -24.1656 394.943 -24.1656 394.15C-24.1656 393.357 -24.0069 392.661 -23.6896 392.064C-23.3722 391.467 -22.9289 391.009 -22.3596 390.692C-21.7809 390.365 -21.1182 390.202 -20.3716 390.202C-19.6436 390.202 -18.9996 390.361 -18.4396 390.678C-17.8796 390.995 -17.4502 391.434 -17.1516 391.994C-16.8436 392.545 -16.6896 393.17 -16.6896 393.87ZM-18.0056 393.604C-18.0056 393.119 -18.1129 392.703 -18.3276 392.358C-18.5422 392.003 -18.8362 391.737 -19.2096 391.56C-19.5736 391.373 -19.9796 391.28 -20.4276 391.28C-21.0716 391.28 -21.6222 391.485 -22.0796 391.896C-22.5276 392.307 -22.7842 392.876 -22.8496 393.604H-18.0056ZM-4.78794 390.328L-7.18194 398H-8.49794L-10.3459 391.91L-12.1939 398H-13.5099L-15.9179 390.328H-14.6159L-12.8519 396.768L-10.9479 390.328H-9.64594L-7.78394 396.782L-6.04794 390.328H-4.78794ZM7.04086 388.242L3.86286 394.318V398H2.58886V394.318L-0.603141 388.242H0.810859L3.21886 393.184L5.62686 388.242H7.04086ZM11.7306 398.126C11.012 398.126 10.3586 397.963 9.77064 397.636C9.19197 397.309 8.73464 396.847 8.39864 396.25C8.07197 395.643 7.90864 394.943 7.90864 394.15C7.90864 393.366 8.07664 392.675 8.41264 392.078C8.75797 391.471 9.22464 391.009 9.81264 390.692C10.4006 390.365 11.0586 390.202 11.7866 390.202C12.5146 390.202 13.1726 390.365 13.7606 390.692C14.3486 391.009 14.8106 391.467 15.1466 392.064C15.492 392.661 15.6646 393.357 15.6646 394.15C15.6646 394.943 15.4873 395.643 15.1326 396.25C14.7873 396.847 14.316 397.309 13.7186 397.636C13.1213 397.963 12.4586 398.126 11.7306 398.126ZM11.7306 397.006C12.188 397.006 12.6173 396.899 13.0186 396.684C13.42 396.469 13.742 396.147 13.9846 395.718C14.2366 395.289 14.3626 394.766 14.3626 394.15C14.3626 393.534 14.2413 393.011 13.9986 392.582C13.756 392.153 13.4386 391.835 13.0466 391.63C12.6546 391.415 12.23 391.308 11.7726 391.308C11.306 391.308 10.8766 391.415 10.4846 391.63C10.102 391.835 9.79397 392.153 9.56064 392.582C9.32731 393.011 9.21064 393.534 9.21064 394.15C9.21064 394.775 9.32264 395.303 9.54664 395.732C9.77997 396.161 10.088 396.483 10.4706 396.698C10.8533 396.903 11.2733 397.006 11.7306 397.006ZM18.6137 391.574C18.8377 391.135 19.1551 390.795 19.5657 390.552C19.9857 390.309 20.4944 390.188 21.0917 390.188V391.504H20.7557C19.3277 391.504 18.6137 392.279 18.6137 393.828V398H17.3397V390.328H18.6137V391.574ZM26.8464 398L23.8364 394.612V398H22.5624V387.64H23.8364V393.73L26.7904 390.328H28.5684L24.9564 394.15L28.5824 398H26.8464ZM31.0835 396.236L29.5155 400.002H28.6615L29.6835 396.236H31.0835ZM37.5213 388.242V394.416C37.5213 395.284 37.7313 395.928 38.1513 396.348C38.5806 396.768 39.1733 396.978 39.9293 396.978C40.6759 396.978 41.2593 396.768 41.6793 396.348C42.1086 395.928 42.3233 395.284 42.3233 394.416V388.242H43.5973V394.402C43.5973 395.214 43.4339 395.9 43.1073 396.46C42.7806 397.011 42.3373 397.421 41.7773 397.692C41.2266 397.963 40.6059 398.098 39.9153 398.098C39.2246 398.098 38.5993 397.963 38.0393 397.692C37.4886 397.421 37.0499 397.011 36.7233 396.46C36.4059 395.9 36.2473 395.214 36.2473 394.402V388.242H37.5213ZM48.8165 398.098C48.1725 398.098 47.5939 397.986 47.0805 397.762C46.5765 397.529 46.1799 397.211 45.8905 396.81C45.6012 396.399 45.4519 395.928 45.4425 395.396H46.8005C46.8472 395.853 47.0339 396.241 47.3605 396.558C47.6965 396.866 48.1819 397.02 48.8165 397.02C49.4232 397.02 49.8992 396.871 50.2445 396.572C50.5992 396.264 50.7765 395.872 50.7765 395.396C50.7765 395.023 50.6739 394.719 50.4685 394.486C50.2632 394.253 50.0065 394.075 49.6985 393.954C49.3905 393.833 48.9752 393.702 48.4525 393.562C47.8085 393.394 47.2905 393.226 46.8985 393.058C46.5159 392.89 46.1845 392.629 45.9045 392.274C45.6339 391.91 45.4985 391.425 45.4985 390.818C45.4985 390.286 45.6339 389.815 45.9045 389.404C46.1752 388.993 46.5532 388.676 47.0385 388.452C47.5332 388.228 48.0979 388.116 48.7325 388.116C49.6472 388.116 50.3939 388.345 50.9725 388.802C51.5605 389.259 51.8919 389.866 51.9665 390.622H50.5665C50.5199 390.249 50.3239 389.922 49.9785 389.642C49.6332 389.353 49.1759 389.208 48.6065 389.208C48.0745 389.208 47.6405 389.348 47.3045 389.628C46.9685 389.899 46.8005 390.281 46.8005 390.776C46.8005 391.131 46.8985 391.42 47.0945 391.644C47.2999 391.868 47.5472 392.041 47.8365 392.162C48.1352 392.274 48.5505 392.405 49.0825 392.554C49.7265 392.731 50.2445 392.909 50.6365 393.086C51.0285 393.254 51.3645 393.52 51.6445 393.884C51.9245 394.239 52.0645 394.724 52.0645 395.34C52.0645 395.816 51.9385 396.264 51.6865 396.684C51.4345 397.104 51.0612 397.445 50.5665 397.706C50.0719 397.967 49.4885 398.098 48.8165 398.098Z" fill="#838383"/>
</svg>
