<svg width="279" height="296" viewBox="0 0 279 296" fill="none" xmlns="http://www.w3.org/2000/svg">
<path opacity="0.1" d="M128.68 296V187.53C128.68 137.6 117.956 96.2783 96.5098 63.5652C74.2053 30.8522 42.0354 9.3304 0 -1V44.1956C25.736 51.0826 44.1801 63.9956 55.3323 82.9348C66.4845 101.013 72.9185 124.687 74.6342 153.957H25.736V296H128.68ZM279 296V187.53C279 137.6 268.277 96.2783 246.83 63.5652C224.526 30.8522 192.356 9.3304 150.32 -1V44.1956C176.056 51.0826 194.5 63.9956 205.653 82.9348C216.805 101.013 223.239 124.687 224.954 153.957H176.056V296H279Z" fill="#1572D3"/>
</svg>
