<svg width="570" height="800" viewBox="0 0 570 800" fill="none" xmlns="http://www.w3.org/2000/svg">
<path fill-rule="evenodd" clip-rule="evenodd" d="M430.338 704.17C391.28 704.17 353.925 696.741 319.662 683.153L196.682 763.664C263.946 807.538 344.208 833 430.338 833C589.601 833 728.671 745.949 803.065 616.547L692.2 552.101C639.891 643.024 542.213 704.17 430.338 704.17Z" fill="#1572D3"/>
<path fill-rule="evenodd" clip-rule="evenodd" d="M117 89L256.336 443.535L117 798L337.007 654.064L659 443.535L337.007 232.936L117 89Z" fill="#1572D3"/>
<path fill-rule="evenodd" clip-rule="evenodd" d="M452.724 108.718C569.866 108.718 672.143 175.98 726.915 276L843 205.106C765.037 62.7593 619.485 -33 452.724 -33C362.472 -33 278.497 -4.99163 208 43.2722C275.934 84.1541 286.523 97.2504 336.837 131.837C372.713 116.89 411.76 108.718 452.724 108.718Z" fill="#1572D3"/>
<path fill-rule="evenodd" clip-rule="evenodd" d="M63.8534 741L128.242 577.179L181 442.965L128.242 308.821L63.8534 145C-1.0896 226.562 -40 330.189 -40 443.035C-40 555.81 -1.0896 659.438 63.8534 741Z" fill="#1572D3"/>
</svg>
